<svg xmlns="http://www.w3.org/2000/svg" viewBox="0 0 500 500"><g id="freepik--background-simple--inject-65"><path d="M398.73,118.6S369.81,77.8,317.5,77.92s-84.17,36.35-120,57.43c-18.74,11-41.82,10.65-62.35,17.46C69.54,174.59,54.75,260.21,88.8,303.44c29.48,37.43,74.92,53,140.61,49.55s112.06-3.67,165.23-50.88S433.31,172.68,398.73,118.6Z" style="fill:#407BFF"></path><path d="M398.73,118.6S369.81,77.8,317.5,77.92s-84.17,36.35-120,57.43c-18.74,11-41.82,10.65-62.35,17.46C69.54,174.59,54.75,260.21,88.8,303.44c29.48,37.43,74.92,53,140.61,49.55s112.06-3.67,165.23-50.88S433.31,172.68,398.73,118.6Z" style="fill:#fff;opacity:0.7000000000000001"></path></g><g id="freepik--traffic-light--inject-65"><rect x="32" y="294.08" width="18.31" height="18.87" rx="2.04" style="fill:#263238;stroke:#263238;stroke-linecap:round;stroke-linejoin:round;stroke-width:1.0352674722671509px"></rect><rect x="52.8" y="294.08" width="9.03" height="18.87" rx="1.54" style="fill:#d9d9d9;stroke:#263238;stroke-linecap:round;stroke-linejoin:round;stroke-width:1.0352674722671509px"></rect><rect x="34.56" y="291.9" width="27.27" height="2.07" rx="0.86" style="fill:#d9d9d9;stroke:#263238;stroke-linecap:round;stroke-linejoin:round;stroke-width:1.0352674722671509px"></rect><rect x="34.56" y="312.81" width="27.27" height="2.07" rx="0.86" style="fill:#d9d9d9;stroke:#263238;stroke-linecap:round;stroke-linejoin:round;stroke-width:1.0352674722671509px"></rect><rect x="63.25" y="284.19" width="24.59" height="8.49" style="fill:#263238;stroke:#263238;stroke-linecap:round;stroke-linejoin:round;stroke-width:1.0352674722671509px"></rect><rect x="44.36" y="318.7" width="18.9" height="8.49" transform="translate(107.61 645.9) rotate(180)" style="fill:#263238;stroke:#263238;stroke-linecap:round;stroke-linejoin:round;stroke-width:1.0352674722671509px"></rect><polygon points="65.19 409.22 60.02 409.22 61.32 270.97 63.9 270.97 65.19 409.22" style="fill:#d9d9d9;stroke:#263238;stroke-linecap:round;stroke-linejoin:round;stroke-width:1.0352674722671509px"></polygon><polygon points="72.69 427.05 52.01 427.05 57.18 407.15 67.52 407.15 72.69 427.05" style="fill:#d9d9d9;stroke:#263238;stroke-linecap:round;stroke-linejoin:round;stroke-width:1.0352674722671509px"></polygon><path d="M44.23,297a2,2,0,1,0-2,2A2,2,0,0,0,44.23,297Z" style="fill:#407BFF"></path><path d="M42.52,299.9,40,299.26l-3.32,2.07a1.07,1.07,0,0,0-.29,1.53l1.36,1.86-.11,3.1-2.16,1.47a.77.77,0,0,0-.28.92h0a.77.77,0,0,0,1,.4l3.15-1.4,1.07-3,1.6,1.6.63,2.8a.72.72,0,0,0,.65.56h0a.72.72,0,0,0,.78-.79l-.35-3.75-1.6-2.46.32-1.6,1.27,1.2a1.23,1.23,0,0,0,1.44.18l1.84-1a.6.6,0,0,0,.26-.76h0a.58.58,0,0,0-.69-.33l-2,.51Z" style="fill:#407BFF"></path></g><g id="freepik--building-2--inject-65"><rect x="252.63" y="163.29" width="34.92" height="14.09" style="fill:#263238;stroke:#263238;stroke-linecap:round;stroke-linejoin:round;stroke-width:1.0352674722671509px"></rect><rect x="155.36" y="176.07" width="163.34" height="251.87" style="fill:#fff;stroke:#263238;stroke-linecap:round;stroke-linejoin:round;stroke-width:1.0352674722671509px"></rect><rect x="155.36" y="176.07" width="163.34" height="10.9" style="fill:#263238;stroke:#263238;stroke-linecap:round;stroke-linejoin:round;stroke-width:1.0352674722671509px"></rect><rect x="151.19" y="176.07" width="167.5" height="7.74" style="fill:#fff;stroke:#263238;stroke-linecap:round;stroke-linejoin:round;stroke-width:1.0352674722671509px"></rect><rect x="270.18" y="255.86" width="39.04" height="55.23" style="fill:#263238;stroke:#263238;stroke-linecap:round;stroke-linejoin:round;stroke-width:1.0352674722671509px"></rect><rect x="270.92" y="256.9" width="37.56" height="53.14" style="fill:#fff;stroke:#263238;stroke-linecap:round;stroke-linejoin:round;stroke-width:1.0352674722671509px"></rect><rect x="288.84" y="256.9" width="1.72" height="53.14" style="fill:#263238;stroke:#263238;stroke-linecap:round;stroke-linejoin:round;stroke-width:1.0352674722671509px"></rect><rect x="270.95" y="267.84" width="37.41" height="1.69" style="fill:#263238;stroke:#263238;stroke-linecap:round;stroke-linejoin:round;stroke-width:1.0352674722671509px"></rect><rect x="270.95" y="283.03" width="37.41" height="1.69" style="fill:#263238;stroke:#263238;stroke-linecap:round;stroke-linejoin:round;stroke-width:1.0352674722671509px"></rect><rect x="270.95" y="298.21" width="37.41" height="1.69" style="fill:#263238;stroke:#263238;stroke-linecap:round;stroke-linejoin:round;stroke-width:1.0352674722671509px"></rect><rect x="217.78" y="255.86" width="39.04" height="55.23" style="fill:#263238;stroke:#263238;stroke-linecap:round;stroke-linejoin:round;stroke-width:1.0352674722671509px"></rect><rect x="218.52" y="256.9" width="37.56" height="53.14" style="fill:#fff;stroke:#263238;stroke-linecap:round;stroke-linejoin:round;stroke-width:1.0352674722671509px"></rect><rect x="236.44" y="256.9" width="1.72" height="53.14" style="fill:#263238;stroke:#263238;stroke-linecap:round;stroke-linejoin:round;stroke-width:1.0352674722671509px"></rect><rect x="218.55" y="267.84" width="37.41" height="1.69" style="fill:#263238;stroke:#263238;stroke-linecap:round;stroke-linejoin:round;stroke-width:1.0352674722671509px"></rect><rect x="218.55" y="283.03" width="37.41" height="1.69" style="fill:#263238;stroke:#263238;stroke-linecap:round;stroke-linejoin:round;stroke-width:1.0352674722671509px"></rect><rect x="218.55" y="298.21" width="37.41" height="1.69" style="fill:#263238;stroke:#263238;stroke-linecap:round;stroke-linejoin:round;stroke-width:1.0352674722671509px"></rect><rect x="270.18" y="191.55" width="39.04" height="55.23" style="fill:#263238;stroke:#263238;stroke-linecap:round;stroke-linejoin:round;stroke-width:1.0352674722671509px"></rect><rect x="270.92" y="192.59" width="37.56" height="53.14" style="fill:#fff;stroke:#263238;stroke-linecap:round;stroke-linejoin:round;stroke-width:1.0352674722671509px"></rect><rect x="288.84" y="192.59" width="1.72" height="53.14" style="fill:#263238;stroke:#263238;stroke-linecap:round;stroke-linejoin:round;stroke-width:1.0352674722671509px"></rect><rect x="270.95" y="203.54" width="37.41" height="1.69" style="fill:#263238;stroke:#263238;stroke-linecap:round;stroke-linejoin:round;stroke-width:1.0352674722671509px"></rect><rect x="270.95" y="218.72" width="37.41" height="1.69" style="fill:#263238;stroke:#263238;stroke-linecap:round;stroke-linejoin:round;stroke-width:1.0352674722671509px"></rect><rect x="270.95" y="233.9" width="37.41" height="1.69" style="fill:#263238;stroke:#263238;stroke-linecap:round;stroke-linejoin:round;stroke-width:1.0352674722671509px"></rect><rect x="217.78" y="191.55" width="39.04" height="55.23" style="fill:#263238;stroke:#263238;stroke-linecap:round;stroke-linejoin:round;stroke-width:1.0352674722671509px"></rect><rect x="218.52" y="192.59" width="37.56" height="53.14" style="fill:#fff;stroke:#263238;stroke-linecap:round;stroke-linejoin:round;stroke-width:1.0352674722671509px"></rect><rect x="236.44" y="192.59" width="1.72" height="53.14" style="fill:#263238;stroke:#263238;stroke-linecap:round;stroke-linejoin:round;stroke-width:1.0352674722671509px"></rect><rect x="218.55" y="203.54" width="37.41" height="1.69" style="fill:#263238;stroke:#263238;stroke-linecap:round;stroke-linejoin:round;stroke-width:1.0352674722671509px"></rect><rect x="218.55" y="218.72" width="37.41" height="1.69" style="fill:#263238;stroke:#263238;stroke-linecap:round;stroke-linejoin:round;stroke-width:1.0352674722671509px"></rect><rect x="218.55" y="233.9" width="37.41" height="1.69" style="fill:#263238;stroke:#263238;stroke-linecap:round;stroke-linejoin:round;stroke-width:1.0352674722671509px"></rect><rect x="165.39" y="191.55" width="39.04" height="55.23" style="fill:#263238;stroke:#263238;stroke-linecap:round;stroke-linejoin:round;stroke-width:1.0352674722671509px"></rect><rect x="166.12" y="192.59" width="37.56" height="53.14" style="fill:#fff;stroke:#263238;stroke-linecap:round;stroke-linejoin:round;stroke-width:1.0352674722671509px"></rect><rect x="184.05" y="192.59" width="1.72" height="53.14" style="fill:#263238;stroke:#263238;stroke-linecap:round;stroke-linejoin:round;stroke-width:1.0352674722671509px"></rect><rect x="166.16" y="203.54" width="37.41" height="1.69" style="fill:#263238;stroke:#263238;stroke-linecap:round;stroke-linejoin:round;stroke-width:1.0352674722671509px"></rect><rect x="166.16" y="218.72" width="37.41" height="1.69" style="fill:#263238;stroke:#263238;stroke-linecap:round;stroke-linejoin:round;stroke-width:1.0352674722671509px"></rect><rect x="166.16" y="233.9" width="37.41" height="1.69" style="fill:#263238;stroke:#263238;stroke-linecap:round;stroke-linejoin:round;stroke-width:1.0352674722671509px"></rect><rect x="163.49" y="335.41" width="147.07" height="92.53" style="fill:#d6d6d6;stroke:#263238;stroke-linecap:round;stroke-linejoin:round;stroke-width:1.0352674722671509px"></rect><line x1="163.93" y1="423.89" x2="310.63" y2="423.89" style="fill:#fff;stroke:#263238;stroke-linecap:round;stroke-linejoin:round;stroke-width:1.0352674722671509px"></line><line x1="163.93" y1="417.97" x2="310.63" y2="417.97" style="fill:#fff;stroke:#263238;stroke-linecap:round;stroke-linejoin:round;stroke-width:1.0352674722671509px"></line><line x1="163.93" y1="412.05" x2="310.63" y2="412.05" style="fill:#fff;stroke:#263238;stroke-linecap:round;stroke-linejoin:round;stroke-width:1.0352674722671509px"></line><line x1="163.93" y1="406.13" x2="310.63" y2="406.13" style="fill:#fff;stroke:#263238;stroke-linecap:round;stroke-linejoin:round;stroke-width:1.0352674722671509px"></line><line x1="163.93" y1="400.21" x2="310.63" y2="400.21" style="fill:#fff;stroke:#263238;stroke-linecap:round;stroke-linejoin:round;stroke-width:1.0352674722671509px"></line><line x1="163.93" y1="394.29" x2="310.63" y2="394.29" style="fill:#fff;stroke:#263238;stroke-linecap:round;stroke-linejoin:round;stroke-width:1.0352674722671509px"></line><line x1="163.93" y1="388.37" x2="310.63" y2="388.37" style="fill:#fff;stroke:#263238;stroke-linecap:round;stroke-linejoin:round;stroke-width:1.0352674722671509px"></line><line x1="163.93" y1="382.44" x2="310.63" y2="382.44" style="fill:#fff;stroke:#263238;stroke-linecap:round;stroke-linejoin:round;stroke-width:1.0352674722671509px"></line><line x1="163.93" y1="376.52" x2="310.63" y2="376.52" style="fill:#fff;stroke:#263238;stroke-linecap:round;stroke-linejoin:round;stroke-width:1.0352674722671509px"></line><line x1="163.93" y1="370.6" x2="310.63" y2="370.6" style="fill:#fff;stroke:#263238;stroke-linecap:round;stroke-linejoin:round;stroke-width:1.0352674722671509px"></line><line x1="163.93" y1="364.68" x2="310.63" y2="364.68" style="fill:#fff;stroke:#263238;stroke-linecap:round;stroke-linejoin:round;stroke-width:1.0352674722671509px"></line><line x1="163.93" y1="358.76" x2="310.63" y2="358.76" style="fill:#fff;stroke:#263238;stroke-linecap:round;stroke-linejoin:round;stroke-width:1.0352674722671509px"></line><line x1="163.93" y1="352.84" x2="310.63" y2="352.84" style="fill:#fff;stroke:#263238;stroke-linecap:round;stroke-linejoin:round;stroke-width:1.0352674722671509px"></line><line x1="163.93" y1="346.92" x2="310.63" y2="346.92" style="fill:#fff;stroke:#263238;stroke-linecap:round;stroke-linejoin:round;stroke-width:1.0352674722671509px"></line><line x1="163.93" y1="341" x2="310.63" y2="341" style="fill:#fff;stroke:#263238;stroke-linecap:round;stroke-linejoin:round;stroke-width:1.0352674722671509px"></line><rect x="163.49" y="319.57" width="147.07" height="26.2" style="fill:#263238;stroke:#263238;stroke-linecap:round;stroke-linejoin:round;stroke-width:1.0352674722671509px"></rect><rect x="171.29" y="255.67" width="20.12" height="104.65" style="fill:#407BFF;stroke:#263238;stroke-linecap:round;stroke-linejoin:round;stroke-width:2.0705349445343018px"></rect><line x1="171.27" y1="281.5" x2="191.24" y2="281.5" style="fill:#fff;stroke:#263238;stroke-linecap:round;stroke-linejoin:round;stroke-width:1.0352674722671509px"></line><line x1="171.27" y1="307.65" x2="191.24" y2="307.65" style="fill:#fff;stroke:#263238;stroke-linecap:round;stroke-linejoin:round;stroke-width:1.0352674722671509px"></line><line x1="171.27" y1="333.79" x2="191.24" y2="333.79" style="fill:#fff;stroke:#263238;stroke-linecap:round;stroke-linejoin:round;stroke-width:1.0352674722671509px"></line><path d="M179.49,276.91V261.14h-2.13v-2.39h6.92v2.39h-2v15.77Z" style="fill:#263238"></path><path d="M177.72,301.59V283.43h6.09v2.38h-3.33v5.29h3.16v2.33h-3.16v5.77h3.45v2.39Z" style="fill:#263238"></path><path d="M183.83,327.51a3.43,3.43,0,0,1-3,1.26,3.53,3.53,0,0,1-3-1.34,6.48,6.48,0,0,1-1-3.88v-7.91c0-2.71.71-4.39,2.12-5.07a4.38,4.38,0,0,1,1.9-.37q3.82,0,3.83,4.83v2.5h-2.67V315.2a5.92,5.92,0,0,0-.24-2,.91.91,0,0,0-.93-.61,1,1,0,0,0-1,.64,5.35,5.35,0,0,0-.27,2v8.48a6.11,6.11,0,0,0,.26,2.1,1,1,0,0,0,1.88,0,6.24,6.24,0,0,0,.26-2.12V321h2.71v2.57A6.53,6.53,0,0,1,183.83,327.51Z" style="fill:#263238"></path><path d="M176.82,353.19V335h2.77v7.35h2.47V335h2.77v18.16h-2.77v-8.44h-2.47v8.44Z" style="fill:#263238"></path></g><g id="freepik--building-1--inject-65"><rect x="236.59" y="138.25" width="219.71" height="289.68" style="fill:gray;stroke:#263238;stroke-linecap:round;stroke-linejoin:round;stroke-width:1.0352674722671509px"></rect><rect x="253.22" y="227.68" width="47.54" height="64.07" style="fill:#263238;stroke:#263238;stroke-linecap:round;stroke-linejoin:round;stroke-width:1.0352674722671509px"></rect><rect x="277.84" y="231.11" width="5.42" height="14.87" style="fill:#fff;stroke:#263238;stroke-linecap:round;stroke-linejoin:round;stroke-width:1.0352674722671509px"></rect><rect x="270.71" y="231.11" width="5.42" height="14.87" style="fill:#fff;stroke:#263238;stroke-linecap:round;stroke-linejoin:round;stroke-width:1.0352674722671509px"></rect><rect x="292.11" y="231.11" width="5.64" height="14.87" style="fill:#fff;stroke:#263238;stroke-linecap:round;stroke-linejoin:round;stroke-width:1.0352674722671509px"></rect><rect x="263.58" y="231.11" width="5.42" height="14.87" style="fill:#fff;stroke:#263238;stroke-linecap:round;stroke-linejoin:round;stroke-width:1.0352674722671509px"></rect><rect x="284.98" y="231.11" width="5.42" height="14.87" style="fill:#fff;stroke:#263238;stroke-linecap:round;stroke-linejoin:round;stroke-width:1.0352674722671509px"></rect><rect x="279.7" y="249.99" width="18.05" height="38.32" style="fill:#fff;stroke:#263238;stroke-linecap:round;stroke-linejoin:round;stroke-width:1.0352674722671509px"></rect><rect x="256.23" y="231.11" width="5.64" height="14.87" style="fill:#fff;stroke:#263238;stroke-linecap:round;stroke-linejoin:round;stroke-width:1.0352674722671509px"></rect><rect x="256.23" y="249.99" width="18.05" height="38.32" style="fill:#fff;stroke:#263238;stroke-linecap:round;stroke-linejoin:round;stroke-width:1.0352674722671509px"></rect><line x1="260.83" y1="270.49" x2="258.45" y2="272.41" style="fill:#fff;stroke:#263238;stroke-linecap:round;stroke-linejoin:round;stroke-width:1.0352674722671509px"></line><line x1="274.38" y1="259.56" x2="263.79" y2="268.1" style="fill:#fff;stroke:#263238;stroke-linecap:round;stroke-linejoin:round;stroke-width:1.0352674722671509px"></line><line x1="283.52" y1="270.49" x2="281.14" y2="272.41" style="fill:#fff;stroke:#263238;stroke-linecap:round;stroke-linejoin:round;stroke-width:1.0352674722671509px"></line><line x1="297.07" y1="259.56" x2="286.48" y2="268.1" style="fill:#fff;stroke:#263238;stroke-linecap:round;stroke-linejoin:round;stroke-width:1.0352674722671509px"></line><rect x="323.57" y="227.68" width="47.54" height="64.07" style="fill:#263238;stroke:#263238;stroke-linecap:round;stroke-linejoin:round;stroke-width:1.0352674722671509px"></rect><rect x="348.2" y="231.11" width="5.42" height="14.87" style="fill:#fff;stroke:#263238;stroke-linecap:round;stroke-linejoin:round;stroke-width:1.0352674722671509px"></rect><rect x="341.06" y="231.11" width="5.42" height="14.87" style="fill:#fff;stroke:#263238;stroke-linecap:round;stroke-linejoin:round;stroke-width:1.0352674722671509px"></rect><rect x="362.47" y="231.11" width="5.64" height="14.87" style="fill:#fff;stroke:#263238;stroke-linecap:round;stroke-linejoin:round;stroke-width:1.0352674722671509px"></rect><rect x="333.93" y="231.11" width="5.42" height="14.87" style="fill:#fff;stroke:#263238;stroke-linecap:round;stroke-linejoin:round;stroke-width:1.0352674722671509px"></rect><rect x="355.33" y="231.11" width="5.42" height="14.87" style="fill:#fff;stroke:#263238;stroke-linecap:round;stroke-linejoin:round;stroke-width:1.0352674722671509px"></rect><rect x="350.05" y="249.99" width="18.05" height="38.32" style="fill:#fff;stroke:#263238;stroke-linecap:round;stroke-linejoin:round;stroke-width:1.0352674722671509px"></rect><rect x="326.58" y="231.11" width="5.64" height="14.87" style="fill:#fff;stroke:#263238;stroke-linecap:round;stroke-linejoin:round;stroke-width:1.0352674722671509px"></rect><rect x="326.58" y="249.99" width="18.05" height="38.32" style="fill:#fff;stroke:#263238;stroke-linecap:round;stroke-linejoin:round;stroke-width:1.0352674722671509px"></rect><line x1="330.67" y1="270.49" x2="328.3" y2="272.41" style="fill:#fff;stroke:#263238;stroke-linecap:round;stroke-linejoin:round;stroke-width:1.0352674722671509px"></line><line x1="344.22" y1="259.56" x2="333.64" y2="268.1" style="fill:#fff;stroke:#263238;stroke-linecap:round;stroke-linejoin:round;stroke-width:1.0352674722671509px"></line><line x1="353.94" y1="270.49" x2="351.56" y2="272.41" style="fill:#fff;stroke:#263238;stroke-linecap:round;stroke-linejoin:round;stroke-width:1.0352674722671509px"></line><line x1="367.49" y1="259.56" x2="356.9" y2="268.1" style="fill:#fff;stroke:#263238;stroke-linecap:round;stroke-linejoin:round;stroke-width:1.0352674722671509px"></line><rect x="393.93" y="227.68" width="47.54" height="64.07" style="fill:#263238;stroke:#263238;stroke-linecap:round;stroke-linejoin:round;stroke-width:1.0352674722671509px"></rect><rect x="418.55" y="231.11" width="5.42" height="14.87" style="fill:#fff;stroke:#263238;stroke-linecap:round;stroke-linejoin:round;stroke-width:1.0352674722671509px"></rect><rect x="411.42" y="231.11" width="5.42" height="14.87" style="fill:#fff;stroke:#263238;stroke-linecap:round;stroke-linejoin:round;stroke-width:1.0352674722671509px"></rect><rect x="432.82" y="231.11" width="5.64" height="14.87" style="fill:#fff;stroke:#263238;stroke-linecap:round;stroke-linejoin:round;stroke-width:1.0352674722671509px"></rect><rect x="404.29" y="231.11" width="5.42" height="14.87" style="fill:#fff;stroke:#263238;stroke-linecap:round;stroke-linejoin:round;stroke-width:1.0352674722671509px"></rect><rect x="425.69" y="231.11" width="5.42" height="14.87" style="fill:#fff;stroke:#263238;stroke-linecap:round;stroke-linejoin:round;stroke-width:1.0352674722671509px"></rect><rect x="420.41" y="249.99" width="18.05" height="38.32" style="fill:#fff;stroke:#263238;stroke-linecap:round;stroke-linejoin:round;stroke-width:1.0352674722671509px"></rect><rect x="396.94" y="231.11" width="5.64" height="14.87" style="fill:#fff;stroke:#263238;stroke-linecap:round;stroke-linejoin:round;stroke-width:1.0352674722671509px"></rect><rect x="396.94" y="249.99" width="18.05" height="38.32" style="fill:#fff;stroke:#263238;stroke-linecap:round;stroke-linejoin:round;stroke-width:1.0352674722671509px"></rect><line x1="402.24" y1="270.49" x2="399.87" y2="272.41" style="fill:#fff;stroke:#263238;stroke-linecap:round;stroke-linejoin:round;stroke-width:1.0352674722671509px"></line><line x1="415.8" y1="259.56" x2="405.21" y2="268.1" style="fill:#fff;stroke:#263238;stroke-linecap:round;stroke-linejoin:round;stroke-width:1.0352674722671509px"></line><line x1="425.51" y1="270.49" x2="423.13" y2="272.41" style="fill:#fff;stroke:#263238;stroke-linecap:round;stroke-linejoin:round;stroke-width:1.0352674722671509px"></line><line x1="439.06" y1="259.56" x2="428.47" y2="268.1" style="fill:#fff;stroke:#263238;stroke-linecap:round;stroke-linejoin:round;stroke-width:1.0352674722671509px"></line><rect x="393.93" y="149.63" width="47.54" height="64.07" style="fill:#263238;stroke:#263238;stroke-linecap:round;stroke-linejoin:round;stroke-width:1.0352674722671509px"></rect><rect x="418.55" y="153.06" width="5.42" height="14.87" style="fill:#fff;stroke:#263238;stroke-linecap:round;stroke-linejoin:round;stroke-width:1.0352674722671509px"></rect><rect x="411.42" y="153.06" width="5.42" height="14.87" style="fill:#fff;stroke:#263238;stroke-linecap:round;stroke-linejoin:round;stroke-width:1.0352674722671509px"></rect><rect x="432.82" y="153.06" width="5.64" height="14.87" style="fill:#fff;stroke:#263238;stroke-linecap:round;stroke-linejoin:round;stroke-width:1.0352674722671509px"></rect><rect x="404.29" y="153.06" width="5.42" height="14.87" style="fill:#fff;stroke:#263238;stroke-linecap:round;stroke-linejoin:round;stroke-width:1.0352674722671509px"></rect><rect x="425.69" y="153.06" width="5.42" height="14.87" style="fill:#fff;stroke:#263238;stroke-linecap:round;stroke-linejoin:round;stroke-width:1.0352674722671509px"></rect><rect x="420.41" y="171.94" width="18.05" height="38.32" style="fill:#fff;stroke:#263238;stroke-linecap:round;stroke-linejoin:round;stroke-width:1.0352674722671509px"></rect><rect x="396.94" y="153.06" width="5.64" height="14.87" style="fill:#fff;stroke:#263238;stroke-linecap:round;stroke-linejoin:round;stroke-width:1.0352674722671509px"></rect><rect x="396.94" y="171.94" width="18.05" height="38.32" style="fill:#fff;stroke:#263238;stroke-linecap:round;stroke-linejoin:round;stroke-width:1.0352674722671509px"></rect><line x1="402.24" y1="193.46" x2="399.87" y2="195.38" style="fill:#fff;stroke:#263238;stroke-linecap:round;stroke-linejoin:round;stroke-width:1.0352674722671509px"></line><line x1="415.8" y1="182.52" x2="405.21" y2="191.07" style="fill:#fff;stroke:#263238;stroke-linecap:round;stroke-linejoin:round;stroke-width:1.0352674722671509px"></line><line x1="425.51" y1="193.46" x2="423.13" y2="195.38" style="fill:#fff;stroke:#263238;stroke-linecap:round;stroke-linejoin:round;stroke-width:1.0352674722671509px"></line><line x1="439.06" y1="182.52" x2="428.47" y2="191.07" style="fill:#fff;stroke:#263238;stroke-linecap:round;stroke-linejoin:round;stroke-width:1.0352674722671509px"></line><rect x="323.57" y="149.63" width="47.54" height="64.07" style="fill:#263238;stroke:#263238;stroke-linecap:round;stroke-linejoin:round;stroke-width:1.0352674722671509px"></rect><rect x="348.2" y="153.06" width="5.42" height="14.87" style="fill:#fff;stroke:#263238;stroke-linecap:round;stroke-linejoin:round;stroke-width:1.0352674722671509px"></rect><rect x="341.06" y="153.06" width="5.42" height="14.87" style="fill:#fff;stroke:#263238;stroke-linecap:round;stroke-linejoin:round;stroke-width:1.0352674722671509px"></rect><rect x="362.47" y="153.06" width="5.64" height="14.87" style="fill:#fff;stroke:#263238;stroke-linecap:round;stroke-linejoin:round;stroke-width:1.0352674722671509px"></rect><rect x="333.93" y="153.06" width="5.42" height="14.87" style="fill:#fff;stroke:#263238;stroke-linecap:round;stroke-linejoin:round;stroke-width:1.0352674722671509px"></rect><rect x="355.33" y="153.06" width="5.42" height="14.87" style="fill:#fff;stroke:#263238;stroke-linecap:round;stroke-linejoin:round;stroke-width:1.0352674722671509px"></rect><rect x="350.05" y="171.94" width="18.05" height="38.32" style="fill:#fff;stroke:#263238;stroke-linecap:round;stroke-linejoin:round;stroke-width:1.0352674722671509px"></rect><rect x="326.58" y="153.06" width="5.64" height="14.87" style="fill:#fff;stroke:#263238;stroke-linecap:round;stroke-linejoin:round;stroke-width:1.0352674722671509px"></rect><rect x="326.58" y="171.94" width="18.05" height="38.32" style="fill:#fff;stroke:#263238;stroke-linecap:round;stroke-linejoin:round;stroke-width:1.0352674722671509px"></rect><line x1="330.73" y1="193.46" x2="328.35" y2="195.38" style="fill:#fff;stroke:#263238;stroke-linecap:round;stroke-linejoin:round;stroke-width:1.0352674722671509px"></line><line x1="344.28" y1="182.52" x2="333.69" y2="191.07" style="fill:#fff;stroke:#263238;stroke-linecap:round;stroke-linejoin:round;stroke-width:1.0352674722671509px"></line><line x1="353.99" y1="193.46" x2="351.61" y2="195.38" style="fill:#fff;stroke:#263238;stroke-linecap:round;stroke-linejoin:round;stroke-width:1.0352674722671509px"></line><line x1="367.54" y1="182.52" x2="356.95" y2="191.07" style="fill:#fff;stroke:#263238;stroke-linecap:round;stroke-linejoin:round;stroke-width:1.0352674722671509px"></line><rect x="253.22" y="149.63" width="47.54" height="64.07" style="fill:#263238;stroke:#263238;stroke-linecap:round;stroke-linejoin:round;stroke-width:1.0352674722671509px"></rect><rect x="277.84" y="153.06" width="5.42" height="14.87" style="fill:#fff;stroke:#263238;stroke-linecap:round;stroke-linejoin:round;stroke-width:1.0352674722671509px"></rect><rect x="270.71" y="153.06" width="5.42" height="14.87" style="fill:#fff;stroke:#263238;stroke-linecap:round;stroke-linejoin:round;stroke-width:1.0352674722671509px"></rect><rect x="292.11" y="153.06" width="5.64" height="14.87" style="fill:#fff;stroke:#263238;stroke-linecap:round;stroke-linejoin:round;stroke-width:1.0352674722671509px"></rect><rect x="263.58" y="153.06" width="5.42" height="14.87" style="fill:#fff;stroke:#263238;stroke-linecap:round;stroke-linejoin:round;stroke-width:1.0352674722671509px"></rect><rect x="284.98" y="153.06" width="5.42" height="14.87" style="fill:#fff;stroke:#263238;stroke-linecap:round;stroke-linejoin:round;stroke-width:1.0352674722671509px"></rect><rect x="279.7" y="171.94" width="18.05" height="38.32" style="fill:#fff;stroke:#263238;stroke-linecap:round;stroke-linejoin:round;stroke-width:1.0352674722671509px"></rect><rect x="256.23" y="153.06" width="5.64" height="14.87" style="fill:#fff;stroke:#263238;stroke-linecap:round;stroke-linejoin:round;stroke-width:1.0352674722671509px"></rect><rect x="256.23" y="171.94" width="18.05" height="38.32" style="fill:#fff;stroke:#263238;stroke-linecap:round;stroke-linejoin:round;stroke-width:1.0352674722671509px"></rect><line x1="259.73" y1="193.46" x2="257.35" y2="195.38" style="fill:#fff;stroke:#263238;stroke-linecap:round;stroke-linejoin:round;stroke-width:1.0352674722671509px"></line><line x1="273.28" y1="182.52" x2="262.69" y2="191.07" style="fill:#fff;stroke:#263238;stroke-linecap:round;stroke-linejoin:round;stroke-width:1.0352674722671509px"></line><line x1="282.99" y1="193.46" x2="280.61" y2="195.38" style="fill:#fff;stroke:#263238;stroke-linecap:round;stroke-linejoin:round;stroke-width:1.0352674722671509px"></line><line x1="296.54" y1="182.52" x2="285.96" y2="191.07" style="fill:#fff;stroke:#263238;stroke-linecap:round;stroke-linejoin:round;stroke-width:1.0352674722671509px"></line><rect x="291.37" y="342.2" width="42.87" height="61.33" style="fill:#fff;stroke:#263238;stroke-linecap:round;stroke-linejoin:round;stroke-width:1.0352674722671509px"></rect><line x1="298.06" y1="372.14" x2="295.68" y2="374.06" style="fill:#fff;stroke:#263238;stroke-linecap:round;stroke-linejoin:round;stroke-width:1.0352674722671509px"></line><line x1="326.24" y1="349.39" x2="301.03" y2="369.74" style="fill:#fff;stroke:#263238;stroke-linecap:round;stroke-linejoin:round;stroke-width:1.0352674722671509px"></line><line x1="309.95" y1="366.29" x2="295.68" y2="377.81" style="fill:#fff;stroke:#263238;stroke-linecap:round;stroke-linejoin:round;stroke-width:1.0352674722671509px"></line><line x1="314.24" y1="380.9" x2="311.87" y2="382.82" style="fill:#fff;stroke:#263238;stroke-linecap:round;stroke-linejoin:round;stroke-width:1.0352674722671509px"></line><line x1="327.79" y1="369.96" x2="317.21" y2="378.51" style="fill:#fff;stroke:#263238;stroke-linecap:round;stroke-linejoin:round;stroke-width:1.0352674722671509px"></line><rect x="236.59" y="138.25" width="219.71" height="5.69" style="fill:#263238;stroke:#263238;stroke-linecap:round;stroke-linejoin:round;stroke-width:1.0352674722671509px"></rect><rect x="264.34" y="121.64" width="34.92" height="14.09" style="fill:#263238;stroke:#263238;stroke-linecap:round;stroke-linejoin:round;stroke-width:1.0352674722671509px"></rect><rect x="333.56" y="120.41" width="4.9" height="15.31" style="fill:#263238;stroke:#263238;stroke-linecap:round;stroke-linejoin:round;stroke-width:1.0352674722671509px"></rect><rect x="233.92" y="129.38" width="225.07" height="11.37" style="fill:#fff;stroke:#263238;stroke-linecap:round;stroke-linejoin:round;stroke-width:1.0352674722671509px"></rect><rect x="341.54" y="309.6" width="114.77" height="118.34" style="fill:gray;stroke:#263238;stroke-linecap:round;stroke-linejoin:round;stroke-width:1.0352674722671509px"></rect><rect x="392.6" y="342.2" width="58.35" height="61.33" style="fill:#fff;stroke:#263238;stroke-linecap:round;stroke-linejoin:round;stroke-width:1.0352674722671509px"></rect><polyline points="411.67 369.37 420.61 358.03 430.23 369.71" style="fill:none;stroke:#263238;stroke-linecap:round;stroke-linejoin:round;stroke-width:1.0352674722671509px"></polyline><rect x="405.83" y="367.65" width="28.86" height="15.12" style="fill:#407BFF;stroke:#263238;stroke-linecap:round;stroke-linejoin:round;stroke-width:1.0352674722671509px"></rect><path d="M411.56,378.7a1.54,1.54,0,0,1-1.34.58,1.59,1.59,0,0,1-1.36-.61,2.93,2.93,0,0,1-.45-1.76v-3.59c0-1.22.32-2,1-2.29a2,2,0,0,1,.86-.17q1.74,0,1.74,2.19v1.13h-1.22v-1.05a2.79,2.79,0,0,0-.1-.91.41.41,0,0,0-.42-.27.43.43,0,0,0-.44.29,2.43,2.43,0,0,0-.12.88V377a2.69,2.69,0,0,0,.12.95.41.41,0,0,0,.42.28.42.42,0,0,0,.43-.29,2.77,2.77,0,0,0,.11-1v-1.17H412v1.16A3,3,0,0,1,411.56,378.7Z" style="fill:#263238"></path><path d="M413,379.18V371h1.26v7.17h1.58v1.06Z" style="fill:#263238"></path><path d="M419.62,378.68a1.56,1.56,0,0,1-1.37.6,1.61,1.61,0,0,1-1.39-.6,3,3,0,0,1-.44-1.8v-3.76c0-1.51.61-2.26,1.84-2.26a1.6,1.6,0,0,1,1.38.57,2.85,2.85,0,0,1,.42,1.69v3.76A3,3,0,0,1,419.62,378.68Zm-1.83-.77a.5.5,0,0,0,.9,0,3.25,3.25,0,0,0,.11-1v-3.84a2.48,2.48,0,0,0-.11-.85.43.43,0,0,0-.43-.27.45.45,0,0,0-.45.27,2,2,0,0,0-.13.85v3.84A3.28,3.28,0,0,0,417.79,377.91Z" style="fill:#263238"></path><path d="M421,376.87v-.73h1.19V377a2.8,2.8,0,0,0,.11,1,.45.45,0,0,0,.44.28.43.43,0,0,0,.43-.23,1.9,1.9,0,0,0,.11-.75,2.06,2.06,0,0,0-.19-.9,3.12,3.12,0,0,0-.6-.81l-.6-.63a3.54,3.54,0,0,1-.67-.92,2.57,2.57,0,0,1-.23-1.1,2.45,2.45,0,0,1,.39-1.52,1.62,1.62,0,0,1,1.35-.49,1.39,1.39,0,0,1,1.3.57,3.36,3.36,0,0,1,.34,1.69v.51h-1.16V373a2.52,2.52,0,0,0-.1-.86.39.39,0,0,0-.39-.26.46.46,0,0,0-.42.2,1.05,1.05,0,0,0-.13.59,1.22,1.22,0,0,0,.13.62,2.76,2.76,0,0,0,.47.6l.68.74a4.64,4.64,0,0,1,.77,1.11,3.53,3.53,0,0,1-.13,3,1.57,1.57,0,0,1-1.36.55,1.45,1.45,0,0,1-1.35-.62A3.36,3.36,0,0,1,421,376.87Z" style="fill:#263238"></path><path d="M425.42,379.18V371h2.76V372h-1.5v2.4h1.43v1.06h-1.43v2.61h1.56v1.08Z" style="fill:#263238"></path><path d="M429.23,379.18V371h1.85a1.56,1.56,0,0,1,1.32.54,2.59,2.59,0,0,1,.41,1.58v3.71a3.2,3.2,0,0,1-.41,1.82,1.54,1.54,0,0,1-1.36.58Zm1.26-1h.41a.56.56,0,0,0,.5-.22,1.5,1.5,0,0,0,.16-.83V373.1a2,2,0,0,0-.15-.91.58.58,0,0,0-.54-.27h-.37Z" style="fill:#263238"></path><line x1="397.78" y1="367.31" x2="395.78" y2="368.92" style="fill:#fff;stroke:#263238;stroke-linecap:round;stroke-linejoin:round;stroke-width:1.0352674722671509px"></line><line x1="421.44" y1="348.21" x2="400.27" y2="365.3" style="fill:#fff;stroke:#263238;stroke-linecap:round;stroke-linejoin:round;stroke-width:1.0352674722671509px"></line><line x1="407.76" y1="362.4" x2="395.78" y2="372.07" style="fill:#fff;stroke:#263238;stroke-linecap:round;stroke-linejoin:round;stroke-width:1.0352674722671509px"></line><line x1="424.05" y1="395.45" x2="422.05" y2="397.06" style="fill:#fff;stroke:#263238;stroke-linecap:round;stroke-linejoin:round;stroke-width:1.0352674722671509px"></line><line x1="447.71" y1="376.36" x2="426.54" y2="393.44" style="fill:#fff;stroke:#263238;stroke-linecap:round;stroke-linejoin:round;stroke-width:1.0352674722671509px"></line><line x1="434.03" y1="390.55" x2="422.05" y2="400.22" style="fill:#fff;stroke:#263238;stroke-linecap:round;stroke-linejoin:round;stroke-width:1.0352674722671509px"></line><rect x="346.75" y="331.48" width="104.2" height="8.93" style="fill:#fff;stroke:#263238;stroke-linecap:round;stroke-linejoin:round;stroke-width:1.0352674722671509px"></rect><rect x="337.82" y="320.76" width="6.55" height="107.18" style="fill:#fff;stroke:#263238;stroke-linecap:round;stroke-linejoin:round;stroke-width:1.0352674722671509px"></rect><rect x="236.59" y="323.89" width="219.71" height="9.38" style="fill:#263238;stroke:#263238;stroke-linecap:round;stroke-linejoin:round;stroke-width:1.0352674722671509px"></rect><rect x="232.42" y="296.94" width="226.86" height="31.46" style="fill:#407BFF;stroke:#263238;stroke-linecap:round;stroke-linejoin:round;stroke-width:1.0352674722671509px"></rect><path d="M368.55,318.1a4.19,4.19,0,0,1-1.34-.83,3.89,3.89,0,0,1-.9-1.39A5.13,5.13,0,0,1,366,314a5.37,5.37,0,0,1,.33-1.92,3.94,3.94,0,0,1,.91-1.43,4.12,4.12,0,0,1,1.38-.88,4.56,4.56,0,0,1,1.71-.31,5.8,5.8,0,0,1,1.44.17,5.88,5.88,0,0,1,1,.41,1.18,1.18,0,0,1,.3.29.85.85,0,0,1,.13.34,1,1,0,0,1,0,.35.68.68,0,0,1-.14.31,1,1,0,0,1-.23.22.58.58,0,0,1-.33.09,1.09,1.09,0,0,1-.39-.08,4.14,4.14,0,0,0-1.62-.39,4.65,4.65,0,0,0-.69,0,1.85,1.85,0,0,0-.6.23,1.33,1.33,0,0,0-.5.47,2.74,2.74,0,0,0-.31.81,5.32,5.32,0,0,0-.12,1.21,3.32,3.32,0,0,0,.54,2.05,1.9,1.9,0,0,0,1.6.7,3.85,3.85,0,0,0,1-.15,4.44,4.44,0,0,0,1-.39.49.49,0,0,1,.53,0,.73.73,0,0,1,.35.53.91.91,0,0,1-.41.9,4.24,4.24,0,0,1-2.63.8A4.63,4.63,0,0,1,368.55,318.1Z" style="fill:#263238"></path><path d="M375.25,317.27a5.82,5.82,0,0,1,0-6.7,4.93,4.93,0,0,1,6.26,0,5.82,5.82,0,0,1,0,6.7,4.93,4.93,0,0,1-6.26,0Zm4.62-1.11a5.95,5.95,0,0,0,0-4.49,1.68,1.68,0,0,0-1.49-.65,1.94,1.94,0,0,0-1.11.28,1.56,1.56,0,0,0-.61.9,5.74,5.74,0,0,0-.2,1.72,4.21,4.21,0,0,0,.44,2.24,2,2,0,0,0,3,0Z" style="fill:#263238"></path><path d="M384.36,317.81A1.29,1.29,0,0,1,384,317v-6.16a1,1,0,0,1,.39-.87,1.58,1.58,0,0,1,1-.28h3.65a.67.67,0,0,1,.53.23.76.76,0,0,1,.22.56.75.75,0,0,1-.22.56.7.7,0,0,1-.53.23h-2.85V313h2.66a.69.69,0,0,1,.54.23.84.84,0,0,1,0,1.13.72.72,0,0,1-.54.22h-2.66V317a1.29,1.29,0,0,1-.32.86,1,1,0,0,1-1.53,0Z" style="fill:#263238"></path><path d="M391.2,317.81a1.24,1.24,0,0,1-.32-.86v-6.16a1,1,0,0,1,.38-.87,1.62,1.62,0,0,1,1-.28h3.65a.7.7,0,0,1,.54.23.8.8,0,0,1,.22.56.79.79,0,0,1-.22.56.74.74,0,0,1-.54.23h-2.84V313h2.66a.7.7,0,0,1,.54.23.84.84,0,0,1,0,1.13.73.73,0,0,1-.54.22h-2.66V317a1.28,1.28,0,0,1-.31.86,1,1,0,0,1-.77.36A1,1,0,0,1,391.2,317.81Z" style="fill:#263238"></path><path d="M398.27,318a.86.86,0,0,1-.33-.35,2,2,0,0,1-.17-.48,2.35,2.35,0,0,1-.06-.54v-5.32a4.39,4.39,0,0,1,0-.56,1.9,1.9,0,0,1,.1-.46.9.9,0,0,1,.23-.37,1,1,0,0,1,.39-.23,1.82,1.82,0,0,1,.6-.08h3.78a.79.79,0,0,1,.58.23.77.77,0,0,1,.23.56.75.75,0,0,1-.23.56.83.83,0,0,1-.58.23h-3V313h2.76a.82.82,0,0,1,.58.23.78.78,0,0,1,.24.57.74.74,0,0,1-.24.56.81.81,0,0,1-.58.22h-2.76v2H403a.69.69,0,0,1,.54.23.82.82,0,0,1,0,1.12.73.73,0,0,1-.54.23h-4.22A.91.91,0,0,1,398.27,318Z" style="fill:#263238"></path><path d="M405.43,318a.86.86,0,0,1-.33-.35,1.62,1.62,0,0,1-.17-.48,2.35,2.35,0,0,1-.06-.54v-5.32c0-.22,0-.41,0-.56a1.92,1.92,0,0,1,.11-.46.89.89,0,0,1,.22-.37,1,1,0,0,1,.4-.23,1.74,1.74,0,0,1,.6-.08H410a.78.78,0,0,1,.58.23.74.74,0,0,1,.24.56.73.73,0,0,1-.24.56.82.82,0,0,1-.58.23h-3V313h2.76a.79.79,0,0,1,.81.8.77.77,0,0,1-.23.56.81.81,0,0,1-.58.22H407v2h3.17a.7.7,0,0,1,.54.23.82.82,0,0,1,0,1.12.74.74,0,0,1-.54.23h-4.22A.88.88,0,0,1,405.43,318Z" style="fill:#263238"></path><path d="M415,317.76a.83.83,0,0,1-.26-.3.8.8,0,0,1-.06-.37,1.21,1.21,0,0,1,.11-.37.71.71,0,0,1,.25-.29.83.83,0,0,1,.35-.14.85.85,0,0,1,.44.1,5,5,0,0,0,2,.42,2.12,2.12,0,0,0,1.07-.23.74.74,0,0,0,.41-.69c0-.42-.3-.72-.9-.92l-1.95-.64a4,4,0,0,1-1.54-.91,1.9,1.9,0,0,1-.46-1.36,2.25,2.25,0,0,1,.95-1.9,4.17,4.17,0,0,1,2.55-.71,6.07,6.07,0,0,1,1.56.2,2.73,2.73,0,0,1,1.22.58.76.76,0,0,1,.22.4.8.8,0,0,1,0,.41,1.25,1.25,0,0,1-.21.35.58.58,0,0,1-.31.2.64.64,0,0,1-.36,0,4.57,4.57,0,0,0-1-.42,4.48,4.48,0,0,0-1-.11,3.26,3.26,0,0,0-.73.08,1.46,1.46,0,0,0-.57.29.66.66,0,0,0-.22.5.7.7,0,0,0,.31.6,3.46,3.46,0,0,0,.92.43,1.76,1.76,0,0,0,.45.09,3.37,3.37,0,0,1,.46.09c.36.11.66.22.92.32a5.21,5.21,0,0,1,.75.37,2.6,2.6,0,0,1,.58.48,2,2,0,0,1,.35.62,2.3,2.3,0,0,1,.13.81,2.32,2.32,0,0,1-.94,2,4.06,4.06,0,0,1-2.56.73A5.49,5.49,0,0,1,415,317.76Z" style="fill:#263238"></path><path d="M422.9,317.81a1.27,1.27,0,0,1-.32-.86v-6.1a1.25,1.25,0,0,1,.32-.86,1,1,0,0,1,1.53,0,1.25,1.25,0,0,1,.32.86v2h3v-2a1.27,1.27,0,0,1,.32-.86,1,1,0,0,1,.77-.36,1,1,0,0,1,.76.36,1.21,1.21,0,0,1,.32.86V317a1.23,1.23,0,0,1-.32.86,1,1,0,0,1-.76.36,1,1,0,0,1-.76-.36,1.23,1.23,0,0,1-.32-.86v-2.31h-3V317a1.27,1.27,0,0,1-.32.86,1,1,0,0,1-1.53,0Z" style="fill:#263238"></path><path d="M432.32,317.27a5.82,5.82,0,0,1,0-6.7,4.93,4.93,0,0,1,6.26,0,5.82,5.82,0,0,1,0,6.7,4.93,4.93,0,0,1-6.26,0Zm4.62-1.11a5.95,5.95,0,0,0,0-4.49,1.68,1.68,0,0,0-1.49-.65,1.94,1.94,0,0,0-1.11.28,1.56,1.56,0,0,0-.61.9,5.74,5.74,0,0,0-.2,1.72,4.21,4.21,0,0,0,.44,2.24,2,2,0,0,0,3,0Z" style="fill:#263238"></path><path d="M441.43,317.81a1.29,1.29,0,0,1-.32-.86v-5.54a4.45,4.45,0,0,1,0-.57,2.08,2.08,0,0,1,.11-.48.94.94,0,0,1,.23-.39,1.24,1.24,0,0,1,.41-.25,1.89,1.89,0,0,1,.62-.09h2.29a6.63,6.63,0,0,1,1,.07,3.54,3.54,0,0,1,.9.25,2.3,2.3,0,0,1,.72.47,2.27,2.27,0,0,1,.46.76,3.34,3.34,0,0,1,.17,1.1,2.38,2.38,0,0,1-.86,2,3.84,3.84,0,0,1-2.43.68h-1.52v2a1.24,1.24,0,0,1-.32.86,1,1,0,0,1-1.53,0Zm3-4.19a3.6,3.6,0,0,0,.66-.07,1.26,1.26,0,0,0,.47-.21.85.85,0,0,0,.29-.4,1.8,1.8,0,0,0,.1-.66,1.16,1.16,0,0,0-.34-1,1.79,1.79,0,0,0-1.08-.25h-1.27v2.57Z" style="fill:#263238"></path><polygon points="344.37 296.94 370.56 328.5 344.37 328.5 344.37 296.94" style="fill:#263238;stroke:#263238;stroke-linecap:round;stroke-linejoin:round;stroke-width:1.0352674722671509px"></polygon><polygon points="441.22 413.5 434.89 409.5 438.9 409.28 434.68 406.12 437.21 406.33 435.74 402.11 438.48 404.85 437.63 397.68 440.17 402.53 439.75 394.09 441.86 398.52 442.28 389.02 446.08 398.1 447.55 393.46 447.98 398.31 451.56 395.78 450.72 400.63 452.83 398.73 453.04 404.43 454.94 403.59 452.83 408.02 455.99 407.38 453.46 410.13 455.36 410.13 450.51 414.14 441.22 413.5" style="fill:#407BFF"></polygon><rect x="439.74" y="412.87" width="11.61" height="14.77" style="fill:#263238;stroke:#263238;stroke-linecap:round;stroke-linejoin:round;stroke-width:1.0352674722671509px"></rect><circle cx="387.59" cy="384.13" r="1.96" style="fill:#263238;stroke:#263238;stroke-linecap:round;stroke-linejoin:round;stroke-width:1.0352674722671509px"></circle><rect x="232.42" y="296.94" width="111.94" height="31.46" style="fill:#fff;stroke:#263238;stroke-linecap:round;stroke-linejoin:round;stroke-width:1.0352674722671509px"></rect><rect x="249.69" y="296.94" width="14.89" height="31.46" style="fill:#407BFF;stroke:#263238;stroke-linecap:round;stroke-linejoin:round;stroke-width:1.0352674722671509px"></rect><rect x="281.25" y="296.94" width="14.89" height="31.46" style="fill:#407BFF;stroke:#263238;stroke-linecap:round;stroke-linejoin:round;stroke-width:1.0352674722671509px"></rect><rect x="312.81" y="296.94" width="14.89" height="31.46" style="fill:#407BFF;stroke:#263238;stroke-linecap:round;stroke-linejoin:round;stroke-width:1.0352674722671509px"></rect><rect x="240.76" y="342.2" width="47.04" height="85.74" style="fill:#263238;stroke:#263238;stroke-linecap:round;stroke-linejoin:round;stroke-width:1.0352674722671509px"></rect><rect x="243.74" y="346.36" width="40.34" height="44.66" style="fill:#fff;stroke:#263238;stroke-linecap:round;stroke-linejoin:round;stroke-width:1.0352674722671509px"></rect><rect x="243.74" y="395.79" width="40.34" height="27.39" style="fill:#fff;stroke:#263238;stroke-linecap:round;stroke-linejoin:round;stroke-width:1.0352674722671509px"></rect><rect x="284.81" y="380.7" width="1.47" height="15.66" style="fill:#fff"></rect><polyline points="254.91 368.51 263.85 357.17 273.47 368.86" style="fill:none;stroke:#263238;stroke-linecap:round;stroke-linejoin:round;stroke-width:1.0352674722671509px"></polyline><rect x="249.07" y="366.79" width="28.86" height="15.12" style="fill:#fff;stroke:#263238;stroke-linecap:round;stroke-linejoin:round;stroke-width:1.0352674722671509px"></rect><path d="M254.8,377.85a1.84,1.84,0,0,1-2.7,0,2.9,2.9,0,0,1-.45-1.75v-3.59c0-1.22.32-2,1-2.29a1.89,1.89,0,0,1,.86-.17c1.16,0,1.73.73,1.73,2.19v1.13H254v-1.06a2.76,2.76,0,0,0-.1-.9.42.42,0,0,0-.42-.28.45.45,0,0,0-.44.29,2.46,2.46,0,0,0-.12.89v3.84a2.65,2.65,0,0,0,.12.95.42.42,0,0,0,.42.29.43.43,0,0,0,.43-.29,2.81,2.81,0,0,0,.11-1v-1.18h1.23v1.17A3,3,0,0,1,254.8,377.85Z" style="fill:#263238"></path><path d="M256.24,378.33V370.1h1.26v7.16h1.58v1.07Z" style="fill:#263238"></path><path d="M262.86,377.83a1.55,1.55,0,0,1-1.37.59,1.63,1.63,0,0,1-1.39-.59,3,3,0,0,1-.44-1.8v-3.76c0-1.51.61-2.27,1.84-2.27a1.58,1.58,0,0,1,1.38.58,2.9,2.9,0,0,1,.41,1.69V376A3.07,3.07,0,0,1,262.86,377.83Zm-1.83-.78a.49.49,0,0,0,.9,0,3.33,3.33,0,0,0,.11-1v-3.83a2.44,2.44,0,0,0-.11-.85.43.43,0,0,0-.43-.27.45.45,0,0,0-.45.27,2,2,0,0,0-.13.84V376A3.24,3.24,0,0,0,261,377.05Z" style="fill:#263238"></path><path d="M264.27,376v-.74h1.18v.83a2.74,2.74,0,0,0,.12,1,.44.44,0,0,0,.44.27.41.41,0,0,0,.43-.23,1.92,1.92,0,0,0,.1-.74,2.14,2.14,0,0,0-.18-.91,3.57,3.57,0,0,0-.6-.81l-.6-.62a3.9,3.9,0,0,1-.67-.92,2.59,2.59,0,0,1-.23-1.11,2.41,2.41,0,0,1,.39-1.51A1.63,1.63,0,0,1,266,370a1.4,1.4,0,0,1,1.3.58,3.34,3.34,0,0,1,.34,1.69v.51h-1.16v-.59a2.52,2.52,0,0,0-.1-.86.38.38,0,0,0-.39-.26.48.48,0,0,0-.43.19,1.18,1.18,0,0,0-.12.59,1.23,1.23,0,0,0,.13.63,2.76,2.76,0,0,0,.47.6l.68.73a4.49,4.49,0,0,1,.77,1.12,3.51,3.51,0,0,1-.13,2.94,1.54,1.54,0,0,1-1.36.55,1.45,1.45,0,0,1-1.35-.61A3.38,3.38,0,0,1,264.27,376Z" style="fill:#263238"></path><path d="M268.66,378.33V370.1h2.76v1.08h-1.5v2.39h1.43v1.06h-1.43v2.62h1.56v1.08Z" style="fill:#263238"></path><path d="M272.47,378.33V370.1h1.85a1.56,1.56,0,0,1,1.32.54,2.56,2.56,0,0,1,.41,1.57v3.72a3.22,3.22,0,0,1-.41,1.82,1.55,1.55,0,0,1-1.36.58Zm1.26-1h.41a.56.56,0,0,0,.5-.23,1.46,1.46,0,0,0,.16-.82v-4.06a2,2,0,0,0-.15-.91.57.57,0,0,0-.54-.28h-.37Z" style="fill:#263238"></path><rect x="346.75" y="342.2" width="43.47" height="85.74" style="fill:#263238;stroke:#263238;stroke-linecap:round;stroke-linejoin:round;stroke-width:1.0352674722671509px"></rect><rect x="349.72" y="344.58" width="35.73" height="58.35" style="fill:#fff;stroke:#263238;stroke-linecap:round;stroke-linejoin:round;stroke-width:1.0352674722671509px"></rect><line x1="359.98" y1="376.96" x2="357.98" y2="378.57" style="fill:#fff;stroke:#263238;stroke-linecap:round;stroke-linejoin:round;stroke-width:1.0352674722671509px"></line><line x1="383.64" y1="357.86" x2="362.47" y2="374.95" style="fill:#fff;stroke:#263238;stroke-linecap:round;stroke-linejoin:round;stroke-width:1.0352674722671509px"></line><line x1="369.96" y1="372.05" x2="357.98" y2="381.72" style="fill:#fff;stroke:#263238;stroke-linecap:round;stroke-linejoin:round;stroke-width:1.0352674722671509px"></line></g><g id="freepik--Wind--inject-65"><path d="M243.36,305.5s-25,7.32-43.92,3.87-31.43-15.93-59-22-43.92-2.58-49.09,3.88" style="fill:none;stroke:#263238;stroke-linecap:round;stroke-linejoin:round;stroke-width:1.0352674722671509px"></path><path d="M100.4,279.23s15.51-3.87,35.31,1.72" style="fill:none;stroke:#263238;stroke-linecap:round;stroke-linejoin:round;stroke-width:1.0352674722671509px"></path><polygon points="85.33 267.6 83.18 260.28 92.22 260.71 85.33 267.6" style="fill:#fff;stroke:#263238;stroke-linecap:round;stroke-linejoin:round;stroke-width:1.0352674722671509px"></polygon><polygon points="72.41 301.62 70.69 298.61 74.57 296.89 76.72 301.19 72.41 301.62" style="fill:#fff;stroke:#263238;stroke-linecap:round;stroke-linejoin:round;stroke-width:1.0352674722671509px"></polygon><path d="M413.94,397.28s-16.36-4.31-31-.86-29.29,15.07-49.09,21.1" style="fill:none;stroke:#263238;stroke-linecap:round;stroke-linejoin:round;stroke-width:1.0352674722671509px"></path><path d="M367.43,397.28s-29.71,15.5-40.9,18.94-21.1,3-25.41-1.72-.43-10.33,3.45-11.19,6.89,3,6.45,5.16" style="fill:none;stroke:#263238;stroke-linecap:round;stroke-linejoin:round;stroke-width:1.0352674722671509px"></path><polygon points="318.35 409.76 316.62 412.78 320.5 414.5 322.65 410.19 318.35 409.76" style="fill:#fff;stroke:#263238;stroke-linecap:round;stroke-linejoin:round;stroke-width:1.0352674722671509px"></polygon><polygon points="177.33 388.01 176.98 384.55 172.83 385.4 173.58 390.16 177.33 388.01" style="fill:#fff;stroke:#263238;stroke-linecap:round;stroke-linejoin:round;stroke-width:1.0352674722671509px"></polygon><polygon points="396.62 408.1 400.03 408.74 400.39 404.52 395.62 403.89 396.62 408.1" style="fill:#fff;stroke:#263238;stroke-linecap:round;stroke-linejoin:round;stroke-width:1.0352674722671509px"></polygon><polygon points="391.35 412.77 393.62 413.2 393.86 410.39 390.68 409.97 391.35 412.77" style="fill:#fff;stroke:#263238;stroke-linecap:round;stroke-linejoin:round;stroke-width:1.0352674722671509px"></polygon><path d="M343.69,398s-6.37-4.45-8.49-4.66-6.15-.85-6.15-.85l6.79-5.31S343.69,392.67,343.69,398Z" style="fill:#fff;stroke:#263238;stroke-linecap:round;stroke-linejoin:round;stroke-width:1.0352674722671509px"></path><path d="M338.81,378.88a30.25,30.25,0,0,1-4.67,6.36,24.9,24.9,0,0,1-5.73,4.25,15.93,15.93,0,0,1,8.7,3.18c4.25,3.18,6.58,5.3,6.58,5.3a73.33,73.33,0,0,1,4.67-6.57,58.59,58.59,0,0,1,6.79-5.52s-6.37-2.33-9.55-4.67-6.37-4.88-6.37-4.88Z" style="fill:#fff;stroke:#263238;stroke-linecap:round;stroke-linejoin:round;stroke-width:1.0352674722671509px"></path><polygon points="340.72 380.58 337.54 384.82 342.84 388 346.24 383.97 340.72 380.58" style="fill:#fff;stroke:#263238;stroke-linecap:round;stroke-linejoin:round;stroke-width:1.0352674722671509px"></polygon><line x1="333.72" y1="388.85" x2="336.69" y2="386.3" style="fill:#fff;stroke:#263238;stroke-linecap:round;stroke-linejoin:round;stroke-width:1.0352674722671509px"></line><line x1="336.48" y1="390.34" x2="339.45" y2="387.79" style="fill:#fff;stroke:#263238;stroke-linecap:round;stroke-linejoin:round;stroke-width:1.0352674722671509px"></line><line x1="338.6" y1="391.61" x2="341.57" y2="389.06" style="fill:#fff;stroke:#263238;stroke-linecap:round;stroke-linejoin:round;stroke-width:1.0352674722671509px"></line><path d="M94.54,407.31s6-2.35,7-3.69,2.82-3.79,2.82-3.79l2.35,6.91S99.19,409.63,94.54,407.31Z" style="fill:#fff;stroke:#263238;stroke-linecap:round;stroke-linejoin:round;stroke-width:1.0352674722671509px"></path><path d="M112.92,412.37a30.83,30.83,0,0,1-4-5.94,19.62,19.62,0,0,1-1.79-5.73,10.29,10.29,0,0,1-5.72,4.49c-4.22,1.47-6.87,2.12-6.87,2.12s3.09,4.05,4.19,6a49.44,49.44,0,0,1,2.54,7,34.78,34.78,0,0,1,7.31-4.41c3.12-1.13,6.42-2.16,6.42-2.16Z" style="fill:#fff;stroke:#263238;stroke-linecap:round;stroke-linejoin:round;stroke-width:1.0352674722671509px"></path><polygon points="110.79 412.92 108.14 408.91 103.56 411.1 105.95 415.16 110.79 412.92" style="fill:#fff;stroke:#263238;stroke-linecap:round;stroke-linejoin:round;stroke-width:1.0352674722671509px"></polygon><line x1="105.9" y1="404.56" x2="107.13" y2="407.69" style="fill:#fff;stroke:#263238;stroke-linecap:round;stroke-linejoin:round;stroke-width:1.0352674722671509px"></line><line x1="103.67" y1="405.78" x2="104.9" y2="408.9" style="fill:#fff;stroke:#263238;stroke-linecap:round;stroke-linejoin:round;stroke-width:1.0352674722671509px"></line><line x1="101.84" y1="406.66" x2="103.07" y2="409.78" style="fill:#fff;stroke:#263238;stroke-linecap:round;stroke-linejoin:round;stroke-width:1.0352674722671509px"></line></g><g id="freepik--Floor--inject-65"><rect x="40.67" y="427.34" width="422.19" height="7.74" style="fill:#fff;stroke:#263238;stroke-linecap:round;stroke-linejoin:round;stroke-width:1.0352674722671509px"></rect></g></svg>