<svg xmlns="http://www.w3.org/2000/svg" viewBox="0 0 750 500"><g id="freepik--background-simple--inject-156"><path d="M713.27,270.36S652.55,114.11,501.52,66.94,266.41,30.82,198.68,91.26,106.82,246,56.22,296.16s-79.41,120.14,112.1,157,232-26.53,364.34-13.27S752.2,406,713.27,270.36Z" style="fill:#407BFF"></path><path d="M713.27,270.36S652.55,114.11,501.52,66.94,266.41,30.82,198.68,91.26,106.82,246,56.22,296.16s-79.41,120.14,112.1,157,232-26.53,364.34-13.27S752.2,406,713.27,270.36Z" style="fill:#fff;opacity:0.8"></path></g><g id="freepik--lamp-2--inject-156"><g style="opacity:0.30000000000000004"><polyline points="517.83 56.95 557.89 56.95 571.27 115.04 554.07 115.04" style="fill:none;stroke:#000;stroke-linejoin:round"></polyline><polyline points="549.37 115.04 496.72 115.04 510.1 56.95 513.8 56.95" style="fill:none;stroke:#000;stroke-linejoin:round"></polyline><line x1="537.27" y1="181.43" x2="537.27" y2="415.53" style="fill:none;stroke:#000;stroke-linejoin:round"></line><line x1="537.27" y1="170.69" x2="537.27" y2="176.06" style="fill:none;stroke:#000;stroke-linejoin:round"></line><polyline points="530.72 349.87 530.72 115.03 537.27 115.03 537.27 166.32" style="fill:none;stroke:#000;stroke-linejoin:round"></polyline><line x1="530.72" y1="415.53" x2="530.72" y2="356.25" style="fill:none;stroke:#000;stroke-linejoin:round"></line><rect x="503.09" y="415.53" width="59.38" height="6.82" style="fill:none;stroke:#000;stroke-linejoin:round"></rect></g></g><g id="freepik--lamp-1--inject-156"><g style="opacity:0.30000000000000004"><rect x="53.83" y="184.27" width="41.39" height="52.8" style="fill:none;stroke:#000;stroke-miterlimit:10"></rect><line x1="69.67" y1="261.14" x2="69.67" y2="237.07" style="fill:none;stroke:#000;stroke-miterlimit:10"></line><line x1="79.38" y1="261.14" x2="79.38" y2="237.07" style="fill:none;stroke:#000;stroke-miterlimit:10"></line><rect x="61.64" y="261.15" width="25.77" height="6.76" style="fill:none;stroke:#000;stroke-miterlimit:10"></rect></g></g><g id="freepik--furniture-2--inject-156"><g style="opacity:0.30000000000000004"><rect x="173.58" y="68.14" width="285.5" height="354.21" style="fill:none;stroke:#000;stroke-miterlimit:10"></rect><path d="M387.74,321.85H243.85V151.78H387.74ZM233.06,151.78H182.14v75.59h50.92Zm165.48-9h52v-67h-52Zm-10.8-67H321.2v67h66.54Zm-143.89,67H310.4v-67H243.85Zm-10.79,93.48H182.14v85.59h50.92Zm217.46-84.48h-52v75h52Zm-52,85v85h52v-85Zm-165.48-94v-67H182.14v67Z" style="fill:none;stroke:#000;stroke-miterlimit:10"></path><rect x="331.99" y="75.74" width="55.76" height="67.05" style="fill:none;stroke:#000;stroke-miterlimit:10"></rect><rect x="254.65" y="75.74" width="55.76" height="67.05" style="fill:none;stroke:#000;stroke-miterlimit:10"></rect><rect x="409.33" y="75.74" width="41.19" height="67.05" style="fill:none;stroke:#000;stroke-miterlimit:10"></rect><rect x="192.93" y="151.78" width="40.13" height="75.6" style="fill:none;stroke:#000;stroke-miterlimit:10"></rect><rect x="409.33" y="151.78" width="41.19" height="75.04" style="fill:none;stroke:#000;stroke-miterlimit:10"></rect><rect x="409.33" y="236.82" width="41.19" height="85.03" style="fill:none;stroke:#000;stroke-miterlimit:10"></rect><rect x="192.93" y="75.74" width="40.13" height="67.05" style="fill:none;stroke:#000;stroke-miterlimit:10"></rect><rect x="254.65" y="151.78" width="133.1" height="170.07" style="fill:none;stroke:#000;stroke-miterlimit:10"></rect><rect x="192.93" y="236.26" width="40.13" height="85.59" style="fill:none;stroke:#000;stroke-miterlimit:10"></rect><rect x="182.78" y="337.6" width="55.83" height="71.34" style="fill:none;stroke:#000;stroke-miterlimit:10"></rect><rect x="189.89" y="346.69" width="41.6" height="53.16" style="fill:none;stroke:#000;stroke-miterlimit:10"></rect><rect x="392.15" y="337.6" width="55.83" height="71.34" style="fill:none;stroke:#000;stroke-miterlimit:10"></rect><rect x="399.26" y="346.69" width="41.6" height="53.16" style="fill:none;stroke:#000;stroke-miterlimit:10"></rect><rect x="246.09" y="337.6" width="65.3" height="32.51" style="fill:none;stroke:#000;stroke-miterlimit:10"></rect><rect x="254.65" y="343.87" width="48.18" height="19.97" style="fill:none;stroke:#000;stroke-miterlimit:10"></rect><rect x="246.09" y="377.73" width="65.3" height="32.51" style="fill:none;stroke:#000;stroke-miterlimit:10"></rect><rect x="254.65" y="384.01" width="48.18" height="19.97" style="fill:none;stroke:#000;stroke-miterlimit:10"></rect><rect x="319.37" y="337.6" width="65.3" height="32.51" style="fill:none;stroke:#000;stroke-miterlimit:10"></rect><rect x="327.93" y="343.87" width="48.18" height="19.97" style="fill:none;stroke:#000;stroke-miterlimit:10"></rect><rect x="319.37" y="377.73" width="65.3" height="32.51" style="fill:none;stroke:#000;stroke-miterlimit:10"></rect><rect x="327.93" y="384.01" width="48.18" height="19.97" style="fill:none;stroke:#000;stroke-miterlimit:10"></rect><path d="M282,353.86a3.3,3.3,0,1,0-3.29,3.29A3.29,3.29,0,0,0,282,353.86Z" style="fill:none;stroke:#000;stroke-miterlimit:10"></path><path d="M355.12,353.86a3.3,3.3,0,1,0-3.29,3.29A3.29,3.29,0,0,0,355.12,353.86Z" style="fill:none;stroke:#000;stroke-miterlimit:10"></path><path d="M282,394a3.3,3.3,0,1,0-3.29,3.29A3.29,3.29,0,0,0,282,394Z" style="fill:none;stroke:#000;stroke-miterlimit:10"></path><circle cx="227.24" cy="372.51" r="3.3" style="fill:none;stroke:#000;stroke-miterlimit:10"></circle><circle cx="405.59" cy="372.51" r="3.3" style="fill:none;stroke:#000;stroke-miterlimit:10"></circle><circle cx="351.83" cy="393.99" r="3.3" style="fill:none;stroke:#000;stroke-miterlimit:10"></circle><rect x="459.08" y="68.14" width="27.68" height="354.51" style="fill:none;stroke:#000;stroke-miterlimit:10"></rect><circle cx="280.48" cy="115.06" r="19.64" style="fill:none;stroke:#000;stroke-miterlimit:10"></circle><line x1="261.44" y1="143.18" x2="270.02" y2="131.48" style="fill:none;stroke:#000;stroke-miterlimit:10"></line><line x1="299.45" y1="143.18" x2="290.88" y2="131.48" style="fill:none;stroke:#000;stroke-miterlimit:10"></line><rect x="201.03" y="196.98" width="20.46" height="30.29" style="fill:none;stroke:#000;stroke-miterlimit:10"></rect><polyline points="202.94 196.97 199.68 183.49 203.16 187.76 202.04 171.69 206.76 185.85 206.76 165.06 210.69 186.41 214.29 173.15 215.41 187.31 218.78 175.74 216.98 191.35 223.73 179.11 220.13 196.75" style="fill:none;stroke:#000;stroke-miterlimit:10"></polyline></g></g><g id="freepik--furniture-1--inject-156"><g style="opacity:0.30000000000000004"><rect x="39.89" y="275" width="127.55" height="147.36" style="fill:none;stroke:#000;stroke-miterlimit:10"></rect><rect x="31.92" y="268.06" width="143.5" height="6.91" style="fill:none;stroke:#000;stroke-miterlimit:10"></rect><rect x="46.05" y="280.42" width="113.69" height="39.94" style="fill:none;stroke:#000;stroke-miterlimit:10"></rect><rect x="91.37" y="295.02" width="20.74" height="4.61" style="fill:none;stroke:#000;stroke-miterlimit:10"></rect><rect x="46.05" y="328.82" width="113.69" height="39.94" style="fill:none;stroke:#000;stroke-miterlimit:10"></rect><rect x="91.37" y="343.41" width="20.74" height="4.61" style="fill:none;stroke:#000;stroke-miterlimit:10"></rect><rect x="46.05" y="377.21" width="113.69" height="39.94" style="fill:none;stroke:#000;stroke-miterlimit:10"></rect><rect x="91.37" y="391.81" width="20.74" height="4.61" style="fill:none;stroke:#000;stroke-miterlimit:10"></rect></g></g><g id="freepik--Picture--inject-156"><g style="opacity:0.30000000000000004"><path d="M623.86,78.41V222.18H727.42V78.41Zm99.07,137.53H628.36V84.65h94.57Z" style="fill:none;stroke:#000;stroke-miterlimit:10"></path><path d="M649.15,206a38.84,38.84,0,0,1-9.46,10h83.24V84.65H707.6l-2,.63c-15,4.73-30.5,18.42-39.29,43.3" style="fill:none;stroke:#000;stroke-miterlimit:10"></path><path d="M664.84,132.94a142.23,142.23,0,0,0-5.74,36.5c-.54,14.84-3.7,25.51-7.92,33.18" style="fill:none;stroke:#000;stroke-miterlimit:10"></path><path d="M713.68,118c-13.75,8-29.76,21.44-35.74,42.05-3.2,11-.2,20.92,5.75,29.41" style="fill:none;stroke:#000;stroke-miterlimit:10"></path><path d="M686.91,193.57c8.26,9.66,20,17.25,29.52,22.37h6.5V113.12c-1.86.87-3.84,1.85-5.9,3" style="fill:none;stroke:#000;stroke-miterlimit:10"></path><path d="M644.08,118.88c7.24-14.76,8-26.47,7.17-34.23H628.36v60.06c3.39-4.81,7.53-11.24,12.53-19.86l.89-1.56" style="fill:none;stroke:#000;stroke-miterlimit:10"></path><path d="M653.05,175.73c-1.12,7.27-4.45,12.55-8.39,12.55-4.86,0-8.8-8-8.8-17.9s3.94-17.9,8.8-17.9,8.79,8,8.79,17.9" style="fill:none;stroke:#000;stroke-miterlimit:10"></path><path d="M657.22,133.64c0,3.81-1.69,6.91-3.77,6.91s-3.77-3.1-3.77-6.91,1.69-6.91,3.77-6.91S657.22,129.82,657.22,133.64Z" style="fill:none;stroke:#000;stroke-miterlimit:10"></path><path d="M705.19,162.83c3.63,1.73,6,4.75,6,8.18,0,5.37-5.91,9.73-13.19,9.73s-13.19-4.36-13.19-9.73,5.9-9.74,13.19-9.74a17.81,17.81,0,0,1,3.46.34" style="fill:none;stroke:#000;stroke-miterlimit:10"></path><path d="M703.57,171c0,2.25-2.48,4.08-5.53,4.08s-5.53-1.83-5.53-4.08,2.47-4.09,5.53-4.09S703.57,168.75,703.57,171Z" style="fill:none;stroke:#000;stroke-miterlimit:10"></path><ellipse cx="705.57" cy="146.2" rx="6.91" ry="5.65" style="fill:none;stroke:#000;stroke-miterlimit:10"></ellipse><ellipse cx="662.55" cy="103.18" rx="4.71" ry="11.62" style="fill:none;stroke:#000;stroke-miterlimit:10"></ellipse><path d="M675.43,203a6.6,6.6,0,1,1-6.6-6.59A6.59,6.59,0,0,1,675.43,203Z" style="fill:none;stroke:#000;stroke-miterlimit:10"></path><path d="M706.2,105.06a4.08,4.08,0,1,1-4.08-4.08A4.09,4.09,0,0,1,706.2,105.06Z" style="fill:none;stroke:#000;stroke-miterlimit:10"></path><path d="M680.45,134a2.2,2.2,0,1,1-2.19-2.2A2.19,2.19,0,0,1,680.45,134Z" style="fill:none;stroke:#000;stroke-miterlimit:10"></path><rect x="628.36" y="84.65" width="94.57" height="131.28" style="fill:none;stroke:#000;stroke-miterlimit:10"></rect></g></g><g id="freepik--Plant--inject-156"><line x1="648.01" y1="331.29" x2="648.01" y2="220.95" style="fill:none;stroke:#5e5e5e;stroke-miterlimit:10;stroke-width:4px"></line><line x1="634.28" y1="333.52" x2="634.28" y2="181.13" style="fill:none;stroke:#5e5e5e;stroke-miterlimit:10;stroke-width:4px"></line><line x1="665.41" y1="334.26" x2="665.41" y2="280.74" style="fill:none;stroke:#5e5e5e;stroke-miterlimit:10;stroke-width:4px"></line><path d="M628.94,196.16s-2.75-5-11.93-16.07-47.29-40.86-47.29-40.86,21.57,11.48,28.46,17.44S614.25,170,614.25,170s-25.71-28-28.46-29.84,26.17,22,26.17,22-11-22-16.53-29.38S579.36,108,579.36,108,609.2,148,610.58,150.25s7.34,12.39,7.34,12.39L607.36,135.1l12.86,22.49s-18.37-38.1-19.28-39.94,12.85,17.9,12.85,17.9L601.85,99.74l27.55,56.48-1.83-22,5,22.95L634,100.66l3.22,56s5-35.81,6-43.15,1.37-15.15,1.37-15.15-.92,48.66-.92,50-.91,12.4-.91,12.4,6.88-20.66,8.72-26.17,3.67-24.34,4.59-27.09-4.59,42.24-5,44.07a53.36,53.36,0,0,1-3.21,8.73c-1.38,2.75,10.1-16.53,14.23-24.8l11.94-23.87s-6.89,23-8.73,27.09-13.77,26.17-13.77,26.17,17.91-21.12,25.71-26.63,22-16.07,22-16.07-23,24.79-27.55,29.38-17.9,20.66-17.9,20.66,23-14.69,24.33-16.06S696,144.28,696,144.28s-33.33,26.33-34.9,28c-13.31,14.24-17.9,21.12-20.66,23.88S633.08,200.29,628.94,196.16Z" style="fill:#407BFF"></path><path d="M644.79,236.41s-1.95-3.58-8.45-11.37-33.45-28.9-33.45-28.9,15.27,8.12,20.14,12.34,11.37,9.42,11.37,9.42-18.19-19.81-20.14-21.11,18.51,15.59,18.51,15.59-7.79-15.59-11.69-20.79-11.37-17.54-11.37-17.54,21.11,28.26,22.09,29.88L637,212.7l-7.47-19.49,9.1,15.92s-13-27-13.64-28.26,9.09,12.67,9.09,12.67l-8.44-25.33,19.48,39.94-1.3-15.58,3.58,16.23,1-39.94,2.27,39.62s3.58-25.33,4.23-30.53,1-10.72,1-10.72-.65,34.43-.65,35.4-.65,8.77-.65,8.77l6.17-18.51c1.3-3.9,2.6-17.21,3.25-19.16s-3.25,29.88-3.57,31.18a37.58,37.58,0,0,1-2.28,6.17c-1,1.94,7.15-11.69,10.07-17.54l8.44-16.89s-4.87,16.24-6.17,19.16-9.74,18.51-9.74,18.51,12.67-14.93,18.19-18.83,15.59-11.37,15.59-11.37S678.24,201.66,675,204.91s-12.66,14.61-12.66,14.61,16.23-10.39,17.21-11.37,12.66-8.44,12.66-8.44-23.57,18.62-24.68,19.81c-9.42,10.07-12.66,14.94-14.61,16.89S647.71,239.33,644.79,236.41Z" style="fill:#407BFF"></path><path d="M661.32,282.78s-2-3.57-8.45-11.37-33.45-28.9-33.45-28.9,15.27,8.12,20.14,12.34,11.36,9.42,11.36,9.42-18.18-19.81-20.13-21.11,18.51,15.59,18.51,15.59-7.79-15.59-11.69-20.79-11.37-17.53-11.37-17.53,21.11,28.25,22.09,29.87l5.19,8.77-7.47-19.48,9.1,15.91s-13-27-13.64-28.25,9.09,12.66,9.09,12.66l-8.44-25.33,19.48,39.94-1.3-15.58,3.57,16.23,1-39.94,2.27,39.62s3.57-25.33,4.22-30.53,1-10.71,1-10.71-.65,34.42-.65,35.39-.65,8.77-.65,8.77l6.17-18.51c1.3-3.9,2.6-17.21,3.25-19.16s-3.25,29.88-3.57,31.18a37.25,37.25,0,0,1-2.28,6.17c-1,1.95,7.15-11.69,10.07-17.54L693.14,223s-4.87,16.24-6.17,19.16-9.74,18.52-9.74,18.52,12.67-14.94,18.19-18.84S711,230.49,711,230.49,694.77,248,691.52,251.28s-12.67,14.61-12.67,14.61,16.24-10.39,17.22-11.37,12.66-8.44,12.66-8.44-23.57,18.63-24.68,19.81c-9.42,10.07-12.67,14.94-14.61,16.89S664.24,285.7,661.32,282.78Z" style="fill:#407BFF"></path><path d="M681.87,370c0,21.68-5.7,40.82-14.41,52.38H628.82c-8.71-11.56-14.41-30.7-14.41-52.38,0-1.89,0-3.77.13-5.62a114.76,114.76,0,0,1,1.49-14c.29-1.7.61-3.37,1-5,.3-1.36.62-2.69,1-4a78.54,78.54,0,0,1,6.36-16.65H672a78.54,78.54,0,0,1,6.36,16.65c.35,1.31.67,2.64,1,4,.36,1.63.68,3.3,1,5a114.76,114.76,0,0,1,1.49,14C681.83,366.2,681.87,368.08,681.87,370Z" style="fill:#fff;stroke:#263238;stroke-miterlimit:10"></path><path d="M678.31,341.35H618c-.35,1.31-.67,2.64-1,4h62.28C679,344,678.66,342.66,678.31,341.35Zm1.94,9H616a114.76,114.76,0,0,0-1.49,14h67.2A114.76,114.76,0,0,0,680.25,350.35Z" style="fill:#263238;stroke:#263238;stroke-miterlimit:10"></path></g><g id="freepik--character-2--inject-156"><path d="M258.66,341.76a74.13,74.13,0,0,0-8.81,8.81c-4,4.84-8.25,18.2-8.25,18.2l-3.13,34.12,2.28,2.85s6.25,7.68,8.81,9.1,4.27,3.69,3.42,0S250.7,410,249.28,404s-2.28-9.38-2.28-9.38,2,1.14,2.85-2.56,1.14-5.69,1.42-6.83,10.52-13.93,17.91-21,13.37-16.77,12.23-22.75-11.37-3.41-14.79-3.41S258.66,341.76,258.66,341.76Z" style="fill:#263238;stroke:#263238;stroke-linecap:round;stroke-linejoin:round"></path><path d="M242.74,407.16s1.65,1.43,8.54,5.34,9.32,3.11,9.45,5.14,1.08,4.05-6.48,5.13-14.05.54-22.84-.67-10.8.27-11.89-3.52,2.71-10.81,2.71-10.81,8.37-.81,12.43-2.29S242.74,407.16,242.74,407.16Z" style="fill:#fff;stroke:#263238;stroke-linecap:round;stroke-linejoin:round"></path><path d="M215.2,252.52s1.42,30.71,3.69,42.94,2.52,27.82,2.81,35.78-2.56,14.5-1.42,23.31,1.13,45.78,1.13,45.78-1.13,5.12-.85,6.83.85,3.41,7.11,2.27,7.39-2.27,9.1-2.56,5.12,2.28,6,.29,1.71-2.28,1.14-5.12-2.28-5.12-2.28-6.25,5.4-41.52,5.69-56.59A188.72,188.72,0,0,1,248.43,319c0-.85,1.17-32.94,1.17-32.94s9.06,53.41,9.06,55.69,8.25,8,14.5,7.39,8-.57,8.25-7.68-1.1-68.19-3.37-78.71a122.92,122.92,0,0,0-4.84-17.06s.29,6-27.29,7.11-29-3.42-29-3.42Z" style="fill:#263238;stroke:#263238;stroke-linecap:round;stroke-linejoin:round"></path><path d="M184.75,270.37v0Z" style="fill:none;stroke:#263238;stroke-linecap:round;stroke-linejoin:round"></path><path d="M194.84,271.42c0,.2-.06.38-.08.55C194.78,271.8,194.81,271.62,194.84,271.42Z" style="fill:none;stroke:#263238;stroke-linecap:round;stroke-linejoin:round"></path><path d="M194.74,272.07c0,.2-.05.38-.08.54C194.69,272.45,194.71,272.27,194.74,272.07Z" style="fill:none;stroke:#263238;stroke-linecap:round;stroke-linejoin:round"></path><path d="M184.71,271.78v0Z" style="fill:none;stroke:#263238;stroke-linecap:round;stroke-linejoin:round"></path><path d="M320.21,191.07c-9.16-4.94-12.83-6.59-15.76-8.24a71,71,0,0,1-9.5-6.9c-1.83-1.64-4.94-7-11.35-13.37s-20.15-11.9-24.36-11.9-6.78-.92-7.51-.74-25.83,5-25.83,5-29.67,8.43-32.79,13.74-2.38,28.39-3.11,32-3.67,23.08-3.67,23.08-2.56,18.32-1.83,26c.18,1.87.28,4.17.34,6.6a25.22,25.22,0,0,0,12.13.79c1.08-7.12,2.22-14.44,2.74-16.91,1.09-5.32,4.39-21.62,4.39-21.62l5.5-12.27,5.31,34.8a68.38,68.38,0,0,0,.18,8.06c.37,3.12.55,5.31.55,5.31s9.16,7.7,27.84,7.33,29.86-7,30.78-8.61a10.42,10.42,0,0,0,1.28-4.21c0-.73-1.65-27.29-1.65-28.94s1.46-21.8,1.46-22.9.92-9.16.92-9.16l21.46,14s11.12,3.68,20.64,6.61,15,4.92,15,4.92l4.39-10.07A107.13,107.13,0,0,0,320.21,191.07Z" style="fill:#407BFF;stroke:#263238;stroke-linecap:round;stroke-linejoin:round"></path><path d="M184.69,272.53v0Z" style="fill:none;stroke:#263238;stroke-linecap:round;stroke-linejoin:round"></path><path d="M196.08,263c0,.17-.05.33-.07.5C196,263.35,196.06,263.18,196.08,263Z" style="fill:none;stroke:#263238;stroke-linecap:round;stroke-linejoin:round"></path><path d="M195.88,264.34l0,.35C195.85,264.58,195.87,264.46,195.88,264.34Z" style="fill:none;stroke:#263238;stroke-linecap:round;stroke-linejoin:round"></path><path d="M195.16,269.24l0,.14Z" style="fill:none;stroke:#263238;stroke-linecap:round;stroke-linejoin:round"></path><path d="M195,270.08l-.06.44Z" style="fill:none;stroke:#263238;stroke-linecap:round;stroke-linejoin:round"></path><path d="M194.94,270.74c0,.21-.06.41-.09.59C194.88,271.15,194.91,271,194.94,270.74Z" style="fill:none;stroke:#263238;stroke-linecap:round;stroke-linejoin:round"></path><path d="M363.58,219.26s-.91,3.85-.37,4.4,3.48-2.75,3.3-4.4S364.5,218.35,363.58,219.26Z" style="fill:#fff;stroke:#263238;stroke-linecap:round;stroke-linejoin:round"></path><path d="M367.79,219.81l.19,5.5s-1.47,1.28-2-.74-1.1-5.49-1.1-5.49Z" style="fill:#fff;stroke:#263238;stroke-linecap:round;stroke-linejoin:round"></path><path d="M369.69,219.86a45.84,45.84,0,0,1,1.83,5.86c0,.92-.54,1.28-1.64,0s-3.12-6.41-3.12-6.41Z" style="fill:#fff;stroke:#263238;stroke-linecap:round;stroke-linejoin:round"></path><path d="M337.75,203.51l13.93,8.24s10.8,2.75,13.18,3.48,11.34,4.63,11.52,6.1-.73,2.2-2,1.28-9.51-3.53-9.51-3.53l-7.14.73a23.68,23.68,0,0,0,3.48,4.58c1.65,1.47,4.4,3.3,3.48,4s-3.11.55-4.58-.37-2.2-2.56-4.76-3.66a20.93,20.93,0,0,1-7-4.58,15.23,15.23,0,0,1-2.2-2.93l-12.82-3.3Z" style="fill:#fff;stroke:#263238;stroke-linecap:round;stroke-linejoin:round"></path><path d="M188.32,297.37a7.88,7.88,0,0,0,2.91,1.16,2.56,2.56,0,0,0,2.46-.81l.9-4.17L196.8,291c.72,1.15.35,3.24,2.62,4s1.06-1.06.26-3.33-.53-5.19-1.06-6.12c-.33-.57-1.05-2.08-1.56-3.17v-.07l-2.47-9.16s1.15-7.9,2.39-16.06a25.22,25.22,0,0,1-12.13-.79c.16,7.57-.15,16.3-.15,16.3s-2.92,17.08-2.11,20.9S188.32,297.37,188.32,297.37Z" style="fill:none;stroke:#263238;stroke-linecap:round;stroke-linejoin:round"></path><path d="M276.27,188s-.51-6.87-1.93-10.28" style="fill:none;stroke:#263238;stroke-linecap:round;stroke-linejoin:round"></path><path d="M209.6,206.34s4.46-7.56,5-12.68" style="fill:none;stroke:#263238;stroke-linecap:round;stroke-linejoin:round"></path><path d="M211.21,208.16s13.65,18.77,25.31,23.6" style="fill:none;stroke:#263238;stroke-linecap:round;stroke-linejoin:round"></path><path d="M237.3,238.16a30.76,30.76,0,0,0,5.19,1.28" style="fill:none;stroke:#263238;stroke-linecap:round;stroke-linejoin:round"></path><path d="M218.61,224.94a44.64,44.64,0,0,0,14.58,11.55" style="fill:none;stroke:#263238;stroke-linecap:round;stroke-linejoin:round"></path><path d="M226.08,134.9s-.18,16.86-.36,18.32-2.2,2.93-2.2,2.93,11.35,13.92,16.85,16.85,7.14,2.2,8.61-3.66a132.27,132.27,0,0,0,2.38-13.92L230.48,134S227.18,132.71,226.08,134.9Z" style="fill:#fff;stroke:#263238;stroke-linecap:round;stroke-linejoin:round"></path><path d="M221.57,126.21s-1.68.5-1.17,3.69,1.17,7.54,2.17,8.21a14.43,14.43,0,0,0,3.69,1.18s1.51,9.38,6.71,12.07,8.72,7.54,13.07,7.54,8.55-.5,9.39-3.52,3.52-14.25,3.69-16.93a51.86,51.86,0,0,0-.17-5.87c0-1.17-.17-5.36-.5-8.38s-1.68-9.22-3.86-12.74-16.93-9.06-22.8-7.55S219.22,115.15,221.57,126.21Z" style="fill:#fff;stroke:#263238;stroke-linecap:round;stroke-linejoin:round"></path><ellipse cx="245.88" cy="134.84" rx="0.84" ry="1.76" style="fill:#263238"></ellipse><path d="M258.11,134.42c0,1-.37,1.76-.83,1.76s-.84-.78-.84-1.76.37-1.76.84-1.76S258.11,133.45,258.11,134.42Z" style="fill:#263238"></path><path d="M241.52,132.08s3.35-2,6.7-.84" style="fill:none;stroke:#263238;stroke-linecap:round;stroke-linejoin:round"></path><path d="M254.93,130.23a2.58,2.58,0,0,1,3.18-.33" style="fill:none;stroke:#263238;stroke-linecap:round;stroke-linejoin:round"></path><path d="M251.91,143.81c-2.68-.67-10.22-.5-12.07,1.85s-1.17,6.2-1.17,6.2-5.87-3.35-6.88-5.87-2.17-9.89-2.17-9.89c.16-.67.5-6.2.5-6.7s5.2-.17,5.2-2.35-4.2-4.86-2.18-10.23,4.69-5.87,8.88-4.36,6.2,4.36,8.55,2.69a8.37,8.37,0,0,0,2.85-2.85,4.54,4.54,0,0,1,1.55-.19c-.12-.22-.25-.44-.38-.65-2.18-3.52-16.93-9.06-22.8-7.55s-12.57,11.24-10.22,22.3c0,0,1.51-.67,3.18,1s2.35,8,2.85,8.88c0,0,1.34,9.56,2.18,11.57a17.38,17.38,0,0,0,2.82,3.48l.37.21c5.19,2.68,8.72,7.54,13.07,7.54s8.55-.5,9.39-3.52c.43-1.54,1.33-5.2,2.14-8.79C256.08,143.83,254.57,144.48,251.91,143.81Z" style="fill:#263238;stroke:#263238;stroke-linecap:round;stroke-linejoin:round"></path><path d="M243.7,146.83s5.53,2.85,10.39.84" style="fill:none;stroke:#9e9e9e;stroke-linecap:round;stroke-linejoin:round"></path><path d="M253.92,131.74s2.35,10.56,1.18,11.9-6,.34-6.88-1.17a3,3,0,0,0-.49-.67" style="fill:#fff;stroke:#263238;stroke-linecap:round;stroke-linejoin:round"></path></g><g id="freepik--character-1--inject-156"><path d="M210.59,277.39a22.92,22.92,0,0,1,1.1,6c0,2.65-2.65,11.7-3.09,12.36A10,10,0,0,1,204,299a5.89,5.89,0,0,1-4-.88l1.54-23.4S209.9,275.38,210.59,277.39Z" style="fill:#fff;stroke:#263238;stroke-linecap:round;stroke-linejoin:round"></path><path d="M208.6,289.09a16.09,16.09,0,0,1-3.75,4,9.75,9.75,0,0,1-3.76,1.77" style="fill:#fff;stroke:#263238;stroke-linecap:round;stroke-linejoin:round"></path><path d="M202.65,228.89s3.78,25.83,6,32.44,2.64,18.06,2.64,18.06a6.37,6.37,0,0,0-6.68.9c-3.45,2.63-4.77-26.89-4.77-26.89Z" style="fill:#fff;stroke:#263238;stroke-linecap:round;stroke-linejoin:round"></path><path d="M132.38,275.26s1.6,14.86,4.57,25.6,7.1,28,7.1,28-9.15,10.88-9.84,18.88-6.4,50.05-6.4,50.05A112.83,112.83,0,0,0,126.44,411c-.23,6.63,3.43,12.11,7.77,12.34a8.26,8.26,0,0,0,8.68-8.68c-.23-5.49-3-15.77-3-18.28a46.84,46.84,0,0,1,.69-6.4s14.62-30.85,18-39.76,9.14-20.11,9.83-28.57,1.37-38.85,1.37-38.85h0s2.51,25.37,3.43,32.45,2.05,13.71,1.82,16-3.42,6.63-3.42,13.71,2.74,35.88,3.42,41.82.69,16.45.69,16.45-2.06,10.29-1.6,12.8,3,4.11,6.86,3.89,7.31-1.6,11.19-.46,13.49,2.74,15.77,2.06,4.8-2.52,4.12-4.58-8.1-4.31-13-7.08c-3.66-2.06-4.8-2.06-5.94-6.17a19.63,19.63,0,0,0-3.2-6.63s6.85-50.27,6.85-61.47S198,321,198,321a80.71,80.71,0,0,0,4.8-24.23c.68-14.17.91-24.45.91-24.45s-13.25,9.83-40.91,4.34-30.16-5.94-30.16-5.94Z" style="fill:#263238;stroke:#263238;stroke-linecap:round;stroke-linejoin:round"></path><path d="M212.14,416.94c-.69-2.05-8.1-4.31-13-7.08-3.66-2.06-4.8-2.06-5.94-6.17a19.63,19.63,0,0,0-3.2-6.63s-1.83.23-2.51,2.75a16.59,16.59,0,0,0-.23,5.71s-1.37,3-8.69-.92c-1-.53-1.91-1-2.74-1.37h0s-2.06,10.29-1.6,12.8,3,4.11,6.86,3.89,7.31-1.6,11.19-.46,13.49,2.74,15.77,2.06S212.82,419,212.14,416.94Z" style="fill:#fff;stroke:#263238;stroke-linecap:round;stroke-linejoin:round"></path><path d="M140.15,393.18c-1.83-1.16-4.36-2.41-6.63-2.29a13.14,13.14,0,0,0-5,1.46l-.73,5.4A112.83,112.83,0,0,0,126.44,411c-.23,6.63,3.43,12.11,7.77,12.34a8.26,8.26,0,0,0,8.68-8.68c-.23-5.49-3-15.77-3-18.28A28,28,0,0,1,140.15,393.18Z" style="fill:#fff;stroke:#263238;stroke-linecap:round;stroke-linejoin:round"></path><path d="M150.47,157.5s-10.85.65-13.68,3.69-6.29,44.51-5.42,49.28,5,6.73,5.42,8.69,2,4.77,3.69,8-5.81,15.16-8.1,21.79S129,258.12,129,262.92s-1.14,11.88.46,13,13.71,8.91,37.48,9.59,37.25-3.42,37.7-5.25.69-4.11.92-5.49-1.42-30.9-1.42-40V214.6c0-1.74,5.43-5.87,3.69-18.67s-2.38-16.07-6.94-21.93-4.78-8-6.52-11.51S183,156.85,183,156.85,155,155.76,150.47,157.5Z" style="fill:#fff;stroke:#263238;stroke-linecap:round;stroke-linejoin:round"></path><path d="M203.45,276.4c-42,12.8-73.35-5-73.35-5" style="fill:none;stroke:#263238;stroke-linecap:round;stroke-linejoin:round"></path><path d="M134.62,211.77s0,3.26,5.65-3.9,8.68-7.6,8.68-7.6" style="fill:none;stroke:#263238;stroke-linecap:round;stroke-linejoin:round"></path><path d="M201,156.74s5,4,1.78,8.53S194,170.22,194.8,173s8.53,5.75,7.14,7.93-7.14,2.38-7.14,2.38,3.18-2,1.59-3.57-3.77,1.58-7.73-2.18-6.15-10.11-3.37-15.86,3.57-7.14,3.57-7.14Z" style="fill:#263238;stroke:#263238;stroke-linecap:round;stroke-linejoin:round"></path><path d="M209.08,124s1.19,6.34.59,7.93-2.57,4.16-2.18,5.55,3.17,6.35,2.38,7.53-4.16,3.37-4.16,3.37-3.77,9.92-4.76,10.31-7.34-1-13.88-4.75-7.93-5.16-8.32-6.94-.6-3.57,1.38-6.94,7.93-1.19,10.11-8.33,3.77-13.87,10.31-14.47S209.08,124,209.08,124Z" style="fill:#fff;stroke:#263238;stroke-linecap:round;stroke-linejoin:round"></path><path d="M202.73,150s-4.56-1.59-5.15-5" style="fill:none;stroke:#263238;stroke-linecap:round;stroke-linejoin:round"></path><path d="M205.11,137.65c-.35,1.11-1.12,1.86-1.72,1.67s-.82-1.24-.47-2.35,1.12-1.86,1.72-1.67S205.46,136.54,205.11,137.65Z" style="fill:#263238"></path><path d="M202.14,132.75s3.17-2.18,5.35,0" style="fill:none;stroke:#263238;stroke-linecap:round;stroke-linejoin:round"></path><path d="M209.08,124s-6.35-4.76-8.92-1.19-.88,9.22-3,11.5c-11.24,12.24-11.89,5.35-13.68,6.94a11.36,11.36,0,0,0-3.17,8.72c.2,3.77,5.35,10.31,3.37,15.27s-6.54,5.35-7.53,9.31,7.14,6.74,3.17,10.11-11.7,5.16-12.49,5.16,4.16-4.17.79-5.16-6.74,2-9.51-.59-.6-5.95-1-7.53-4.56-5.95-8.33-12.3.6-8.32,3.77-9.11,4.76-1,4.95-2.78-.79-7.73-.59-12.89,8.33-23.39,11.7-26.16S185.29,105,195,107.18s12.29,7.53,16.85,11.1,2.18,6.94.2,8.13l-2,1.19Z" style="fill:#263238;stroke:#263238;stroke-linecap:round;stroke-linejoin:round"></path><path d="M176.42,164.4s.65-4.13.86-5.21-1.32-8.47-1.1-10.42,4.57-7.63,6.31-7.85,3,1.54,3.67,2.41.22,2.17-.22,3.25a47.22,47.22,0,0,0-1.07,5.43,17.62,17.62,0,0,1,2.81-4.7c1.52-1.52,3-1.09,2.82,0a30.45,30.45,0,0,1-1.94,4.7,18.73,18.73,0,0,0-.87,3.25s1.75,4.34,1.1,7.6-3,8.91-3.24,9.56-10.43-3.68-10.43-3.68Z" style="fill:#fff;stroke:#263238;stroke-linecap:round;stroke-linejoin:round"></path><path d="M184.87,152a7.75,7.75,0,0,0-.62,2.47,19.11,19.11,0,0,0,.43,2.93" style="fill:none;stroke:#263238;stroke-linecap:round;stroke-linejoin:round"></path><path d="M184.93,142.24s-3.2,6.58-3.41,7.63-.41,6.29,0,7.34" style="fill:none;stroke:#263238;stroke-linecap:round;stroke-linejoin:round"></path><path d="M181.88,141.33s-3.38,6.38-3.59,7.71.57,7.37.57,7.37" style="fill:none;stroke:#263238;stroke-linecap:round;stroke-linejoin:round"></path><path d="M176.42,164.4l13.25,5.84-4.53,15.2s5.87,3.47,4.79,8.9-8.2,31-10.15,35.4-10.19,7-15.4,9.14-16.06,1.76-19.1-.62-4.79-8.46-4.8-11.06-1.31-7.82,3-8.69,6.07-3.27,6.5-7.83,3.45-12.16,5.19-13.47,7.59-2,7.59-2,3.26,0,.21-5.21-1.1-7.38,2.59-9.34a40.09,40.09,0,0,0,6.29-4.14Z" style="fill:#fff;stroke:#263238;stroke-linecap:round;stroke-linejoin:round"></path><path d="M165.39,189.6s6.1,12.58,8.7,13.66,8-1.75,8-1.75" style="fill:none;stroke:#263238;stroke-linecap:round;stroke-linejoin:round"></path><path d="M149.15,217s-3.47,5-3.24,9.12,3.48,4.56,3.48,4.56" style="fill:none;stroke:#263238;stroke-linecap:round;stroke-linejoin:round"></path></g><g id="freepik--Sofa--inject-156"><rect x="318.96" y="247.74" width="148.2" height="121.45" rx="11.67" style="fill:#407BFF;stroke:#263238;stroke-miterlimit:10"></rect><polygon points="330.39 300.1 337.52 354.08 327.98 354.08 330.39 300.1" style="fill:#263238;stroke:#263238;stroke-miterlimit:10"></polygon><rect x="488.54" y="247.74" width="148.2" height="121.45" rx="11.67" style="fill:#407BFF;stroke:#263238;stroke-miterlimit:10"></rect><rect x="467.17" y="247.74" width="148.2" height="121.45" rx="11.67" style="fill:#407BFF;stroke:#263238;stroke-miterlimit:10"></rect><path d="M606.42,292S581.9,283.63,565.27,281s-21.46-5.69-21.46-5.69a47.91,47.91,0,0,0-.87,6.57c0,2.19-3.5,14-5.69,26.27s-4.38,25-4.38,25-2.9,9.28-3.24,12.45c-.11,1-3.41,4.54.1,7.16s9.27-1.66,9.27-1.66,16.64,3.5,30.64,3.5a197.61,197.61,0,0,0,27.59-2.19s4.81,3.07,6.56-.43l1.76-3.51C606,337,609.92,320,610.8,297.64,611,293.25,615.61,292,606.42,292Z" style="fill:#fff;stroke:#263238;stroke-linecap:round;stroke-linejoin:round"></path><rect x="294.52" y="294.68" width="35.86" height="127.67" rx="7" style="fill:#407BFF;stroke:#263238;stroke-miterlimit:10"></rect><rect x="276.16" y="294.68" width="35.86" height="127.67" rx="7" style="fill:#407BFF;stroke:#263238;stroke-miterlimit:10"></rect><path d="M312.26,365.37l1,53.38a3.57,3.57,0,0,0,3.57,3.58H620.09l-1-57Z" style="fill:#407BFF;stroke:#263238;stroke-miterlimit:10"></path><path d="M312.26,371.32v8.26c17.77-.25,98.49-1.08,118.27-1.08,23.28,0,66.4,1.53,77.08,1.53s105.09.74,105.09.74l.13-6.77Z" style="fill:#263238;stroke:#263238;stroke-miterlimit:10"></path><path d="M462.8,352.21c-4.78,0-124.71-.23-128.54-.7-3.09-.39-16.82-.15-22-.05v24.46c20.35.25,210.5,2.36,220.83,2.36,11,0,79.3-1.28,79.3-1.28V354.53S467.59,352.21,462.8,352.21Z" style="fill:#407BFF;stroke:#263238;stroke-miterlimit:10"></path><rect x="604.27" y="294.68" width="35.86" height="127.67" rx="7" style="fill:#407BFF;stroke:#263238;stroke-miterlimit:10"></rect><rect x="582.01" y="294.68" width="35.86" height="127.67" rx="7" style="fill:#407BFF;stroke:#263238;stroke-miterlimit:10"></rect></g><g id="freepik--Table--inject-156"><path d="M381,320.29a39.38,39.38,0,0,0,70.52,0Z" style="fill:#fff;stroke:#263238;stroke-linecap:round;stroke-linejoin:round"></path><path d="M506.76,340.23H409.55v82.12h97.3v-82C506.85,340.3,506.81,340.23,506.76,340.23Zm-3.19,76.59H412.83V345.76h90.64c.06,0,.1.08.1.17Z" style="fill:#263238;stroke:#263238;stroke-linecap:round;stroke-linejoin:round"></path><path d="M439.29,340.23H342.08v82.12h97.3v-82C439.38,340.3,439.34,340.23,439.29,340.23Zm-3.19,76.59H345.36V345.76H436c.05,0,.09.08.09.17Z" style="fill:#263238;stroke:#263238;stroke-linecap:round;stroke-linejoin:round"></path><path d="M339.69,340.23h170a.18.18,0,0,1,.18.18v7.12a0,0,0,0,1,0,0H339.69a0,0,0,0,1,0,0v-7.29A0,0,0,0,1,339.69,340.23Z" style="fill:#fff;stroke:#263238;stroke-linecap:round;stroke-linejoin:round"></path><path d="M436,340.23h73.69a.18.18,0,0,1,.18.18v7.12a0,0,0,0,1,0,0H436a0,0,0,0,1,0,0v-7.29A0,0,0,0,1,436,340.23Z" style="fill:#263238;stroke:#263238;stroke-linecap:round;stroke-linejoin:round"></path></g><g id="freepik--price-tags--inject-156"><rect x="356.1" y="247.65" width="42.26" height="30.88" style="fill:#fff;stroke:#263238;stroke-linecap:round;stroke-linejoin:round"></rect><rect x="358.72" y="259.58" width="35.54" height="15.11" style="fill:#407BFF"></rect><path d="M363.34,273v-.91a1.92,1.92,0,0,1-1.5-.64,2.89,2.89,0,0,1-.54-1.81l1.38-.24a3.59,3.59,0,0,0,.1.82,1.07,1.07,0,0,0,.25.49.57.57,0,0,0,.43.16.46.46,0,0,0,.42-.2.94.94,0,0,0,.11-.45,1.45,1.45,0,0,0-.23-.83,3.26,3.26,0,0,0-.63-.68l-.83-.72a4.3,4.3,0,0,1-.51-.54,2.24,2.24,0,0,1-.36-.62,2.33,2.33,0,0,1-.13-.83,1.91,1.91,0,0,1,.52-1.44,2.22,2.22,0,0,1,1.41-.58v-.87h.47V264a1.78,1.78,0,0,1,.86.24,1.46,1.46,0,0,1,.52.53,2.58,2.58,0,0,1,.25.69,6.7,6.7,0,0,1,.1.73l-1.4.21a5.38,5.38,0,0,0-.06-.64.89.89,0,0,0-.18-.44.47.47,0,0,0-.39-.15.49.49,0,0,0-.41.22.77.77,0,0,0-.15.46,1.14,1.14,0,0,0,.22.72,4.05,4.05,0,0,0,.49.53l.81.71a5.13,5.13,0,0,1,.6.63,3,3,0,0,1,.44.76,2.61,2.61,0,0,1,.16,1,2.09,2.09,0,0,1-.21.94,1.81,1.81,0,0,1-.6.69,1.94,1.94,0,0,1-.94.31V273Z" style="fill:#263238"></path><path d="M366.2,272V270.9l1.93-3c.14-.22.28-.43.4-.63a3.66,3.66,0,0,0,.32-.62A2,2,0,0,0,369,266a1,1,0,0,0-.15-.59.48.48,0,0,0-.42-.2.65.65,0,0,0-.45.16.91.91,0,0,0-.21.43,2.65,2.65,0,0,0-.06.58v.37H366.2v-.39a3.33,3.33,0,0,1,.22-1.26,1.78,1.78,0,0,1,.7-.85,2.19,2.19,0,0,1,1.24-.31,2.08,2.08,0,0,1,1.58.55,2.12,2.12,0,0,1,.53,1.53,2.56,2.56,0,0,1-.15.89,4.06,4.06,0,0,1-.39.78l-.51.78-1.53,2.3h2.36V272Z" style="fill:#263238"></path><path d="M373.22,272.1a2.23,2.23,0,0,1-1.27-.3,1.52,1.52,0,0,1-.61-.85,4.92,4.92,0,0,1-.16-1.28h1.46a4.87,4.87,0,0,0,.05.72.9.9,0,0,0,.2.44.56.56,0,0,0,.43.14.49.49,0,0,0,.41-.22,1.4,1.4,0,0,0,.15-.59q0-.37,0-.9a4.17,4.17,0,0,0-.05-.74,1,1,0,0,0-.19-.51.51.51,0,0,0-.43-.18.59.59,0,0,0-.44.18,1.19,1.19,0,0,0-.25.53h-1.29l.11-4.5H375v1.3h-2.4l-.09,1.75a.89.89,0,0,1,.4-.25,1.74,1.74,0,0,1,.6-.13,1.47,1.47,0,0,1,1,.23,1.76,1.76,0,0,1,.61.87,4.39,4.39,0,0,1,.19,1.4,6.92,6.92,0,0,1-.08,1.15,2.43,2.43,0,0,1-.3.92,1.6,1.6,0,0,1-.65.61A2.43,2.43,0,0,1,373.22,272.1Z" style="fill:#263238"></path><path d="M378.33,272.1a2.28,2.28,0,0,1-1.19-.29,1.84,1.84,0,0,1-.7-.81,2.78,2.78,0,0,1-.24-1.19v-3.55a3.09,3.09,0,0,1,.23-1.22,1.79,1.79,0,0,1,.69-.82,2.33,2.33,0,0,1,1.21-.29,2.25,2.25,0,0,1,1.19.29,1.79,1.79,0,0,1,.69.82,3.09,3.09,0,0,1,.22,1.22v3.55a2.94,2.94,0,0,1-.23,1.19,1.92,1.92,0,0,1-.71.81A2.19,2.19,0,0,1,378.33,272.1Zm0-1.33a.42.42,0,0,0,.38-.17,1,1,0,0,0,.16-.39,3.46,3.46,0,0,0,0-.43v-3.49a3.52,3.52,0,0,0,0-.45.92.92,0,0,0-.15-.41.45.45,0,0,0-.39-.17.46.46,0,0,0-.4.17,1.07,1.07,0,0,0-.16.41,3.52,3.52,0,0,0,0,.45v3.49a2.29,2.29,0,0,0,0,.43.77.77,0,0,0,.17.39A.42.42,0,0,0,378.33,270.77Z" style="fill:#263238"></path><path d="M381.44,272v-1.44h1.41V272Z" style="fill:#263238"></path><path d="M385.78,272.07a2.48,2.48,0,0,1-1.18-.23,1.37,1.37,0,0,1-.64-.68,2.87,2.87,0,0,1-.19-1.11v-.12h1.43a2,2,0,0,0,.1.74c.07.17.23.25.49.25a.46.46,0,0,0,.36-.15,1,1,0,0,0,.17-.5,6.07,6.07,0,0,0,.05-.95v-.81a.88.88,0,0,1-.4.33,1.66,1.66,0,0,1-.61.13,1.47,1.47,0,0,1-1-.31,1.73,1.73,0,0,1-.55-.85,4.47,4.47,0,0,1-.16-1.2,4.27,4.27,0,0,1,.21-1.41,1.75,1.75,0,0,1,.68-.93,2.51,2.51,0,0,1,2.47,0,1.77,1.77,0,0,1,.68.88,3.64,3.64,0,0,1,.22,1.33v2.89a4.93,4.93,0,0,1-.18,1.39,1.78,1.78,0,0,1-.63,1A2.1,2.1,0,0,1,385.78,272.07Zm0-4.25a.55.55,0,0,0,.36-.13,1,1,0,0,0,.22-.24v-1.26a2.48,2.48,0,0,0-.05-.56,1,1,0,0,0-.17-.41.47.47,0,0,0-.37-.16.46.46,0,0,0-.38.17,1.08,1.08,0,0,0-.17.47,5.22,5.22,0,0,0,0,.74c0,.26,0,.5,0,.71a1.05,1.05,0,0,0,.15.49A.47.47,0,0,0,385.79,267.82Z" style="fill:#263238"></path><path d="M391,272.07a2.43,2.43,0,0,1-1.17-.23,1.33,1.33,0,0,1-.64-.68,2.87,2.87,0,0,1-.19-1.11v-.12h1.42a2,2,0,0,0,.11.74c.07.17.23.25.48.25a.43.43,0,0,0,.36-.15.9.9,0,0,0,.18-.5,7.63,7.63,0,0,0,.05-.95v-.81a.94.94,0,0,1-.4.33,1.66,1.66,0,0,1-.61.13,1.52,1.52,0,0,1-1-.31,1.78,1.78,0,0,1-.54-.85,4.1,4.1,0,0,1-.16-1.2,4.57,4.57,0,0,1,.2-1.41,1.86,1.86,0,0,1,.68-.93,2.17,2.17,0,0,1,1.25-.33,2.14,2.14,0,0,1,1.22.32,1.74,1.74,0,0,1,.69.88,3.87,3.87,0,0,1,.21,1.33v2.89a5,5,0,0,1-.17,1.39,1.79,1.79,0,0,1-.64,1A2.07,2.07,0,0,1,391,272.07Zm0-4.25a.57.57,0,0,0,.37-.13,1.2,1.2,0,0,0,.22-.24v-1.26a3.24,3.24,0,0,0-.05-.56.86.86,0,0,0-.18-.41.46.46,0,0,0-.37-.16.44.44,0,0,0-.37.17,1,1,0,0,0-.17.47,5.06,5.06,0,0,0-.05.74c0,.26,0,.5,0,.71a1,1,0,0,0,.16.49A.46.46,0,0,0,391,267.82Z" style="fill:#263238"></path><rect x="362.35" y="253.46" width="28.28" height="2.92" style="fill:#407BFF"></rect><rect x="449.86" y="340.43" width="42.26" height="30.88" style="fill:#fff;stroke:#263238;stroke-linecap:round;stroke-linejoin:round"></rect><rect x="452.48" y="352.36" width="35.54" height="15.11" style="fill:#407BFF"></rect><path d="M459.47,365.75v-.91a2,2,0,0,1-1.51-.64,3,3,0,0,1-.54-1.81l1.38-.24a4.18,4.18,0,0,0,.11.82,1,1,0,0,0,.25.49.61.61,0,0,0,.43.16.43.43,0,0,0,.41-.2.84.84,0,0,0,.12-.45,1.45,1.45,0,0,0-.23-.83,3.35,3.35,0,0,0-.64-.68l-.83-.72a4.3,4.3,0,0,1-.51-.54,2.21,2.21,0,0,1-.35-.62,2.38,2.38,0,0,1-.14-.84,1.91,1.91,0,0,1,.53-1.43,2.16,2.16,0,0,1,1.4-.58v-.87h.47v.87a1.82,1.82,0,0,1,.87.24,1.43,1.43,0,0,1,.51.53,2.29,2.29,0,0,1,.26.69,6.7,6.7,0,0,1,.1.73l-1.4.21a5.38,5.38,0,0,0-.06-.64.94.94,0,0,0-.18-.44.47.47,0,0,0-.39-.15.52.52,0,0,0-.42.22.83.83,0,0,0-.14.46,1.09,1.09,0,0,0,.22.72,3.46,3.46,0,0,0,.49.53l.81.71a6,6,0,0,1,.6.63,3,3,0,0,1,.44.76,2.61,2.61,0,0,1,.16,1,2.09,2.09,0,0,1-.21.94,1.81,1.81,0,0,1-.6.69,1.94,1.94,0,0,1-.94.31v.92Z" style="fill:#263238"></path><path d="M464.39,364.88a2.27,2.27,0,0,1-1.27-.3,1.55,1.55,0,0,1-.6-.85,4.55,4.55,0,0,1-.16-1.29h1.46a3.85,3.85,0,0,0,.05.73.86.86,0,0,0,.2.44.53.53,0,0,0,.42.14.46.46,0,0,0,.41-.22,1.26,1.26,0,0,0,.16-.59q0-.37,0-.9a5.27,5.27,0,0,0,0-.74,1.09,1.09,0,0,0-.19-.51.54.54,0,0,0-.44-.19.57.57,0,0,0-.43.19,1.05,1.05,0,0,0-.25.53h-1.29l.1-4.5h3.64v1.3h-2.39l-.09,1.75a.91.91,0,0,1,.39-.25,1.75,1.75,0,0,1,.61-.13,1.47,1.47,0,0,1,1,.23,1.75,1.75,0,0,1,.6.87,4.34,4.34,0,0,1,.2,1.39,8.23,8.23,0,0,1-.08,1.16,2.43,2.43,0,0,1-.3.92,1.6,1.6,0,0,1-.65.61A2.48,2.48,0,0,1,464.39,364.88Z" style="fill:#263238"></path><path d="M469.5,364.88a2.24,2.24,0,0,1-1.18-.29,1.86,1.86,0,0,1-.71-.81,2.94,2.94,0,0,1-.23-1.19V359a3.09,3.09,0,0,1,.22-1.22,1.81,1.81,0,0,1,.7-.82,2.27,2.27,0,0,1,1.2-.29,2.23,2.23,0,0,1,1.19.29,1.79,1.79,0,0,1,.69.82,3.09,3.09,0,0,1,.23,1.22v3.55a2.78,2.78,0,0,1-.24,1.19,1.9,1.9,0,0,1-.7.81A2.23,2.23,0,0,1,469.5,364.88Zm0-1.33a.4.4,0,0,0,.38-.17A1,1,0,0,0,470,363a2.29,2.29,0,0,0,0-.43v-3.49a2.28,2.28,0,0,0,0-.45.92.92,0,0,0-.15-.41.44.44,0,0,0-.39-.17.45.45,0,0,0-.39.17.82.82,0,0,0-.16.41,3.4,3.4,0,0,0,0,.45v3.49a3.46,3.46,0,0,0,0,.43,1,1,0,0,0,.17.39A.43.43,0,0,0,469.5,363.55Z" style="fill:#263238"></path><path d="M472.62,364.74v-1.43H474v1.43Z" style="fill:#263238"></path><path d="M477,364.85a2.43,2.43,0,0,1-1.17-.23,1.33,1.33,0,0,1-.64-.68,2.86,2.86,0,0,1-.2-1.11v-.12h1.43a2,2,0,0,0,.11.74c.06.17.23.25.48.25a.43.43,0,0,0,.36-.15.9.9,0,0,0,.18-.5,7.63,7.63,0,0,0,.05-.95v-.81a.94.94,0,0,1-.4.33,1.66,1.66,0,0,1-.61.13,1.52,1.52,0,0,1-1-.31,1.78,1.78,0,0,1-.54-.85,4.1,4.1,0,0,1-.16-1.2A4.57,4.57,0,0,1,475,358a1.86,1.86,0,0,1,.68-.93,2.17,2.17,0,0,1,1.25-.33,2.14,2.14,0,0,1,1.22.32,1.74,1.74,0,0,1,.69.88,3.83,3.83,0,0,1,.21,1.33v2.89a5,5,0,0,1-.17,1.39,1.83,1.83,0,0,1-.64,1A2.13,2.13,0,0,1,477,364.85Zm0-4.26a.57.57,0,0,0,.37-.12,1.2,1.2,0,0,0,.22-.24V359a3.24,3.24,0,0,0-.05-.56.86.86,0,0,0-.18-.41.46.46,0,0,0-.37-.16.44.44,0,0,0-.37.17,1,1,0,0,0-.17.47,5.06,5.06,0,0,0-.05.74c0,.26,0,.5,0,.71a1.05,1.05,0,0,0,.15.49A.47.47,0,0,0,477,360.59Z" style="fill:#263238"></path><path d="M482.14,364.85a2.5,2.5,0,0,1-1.18-.23,1.35,1.35,0,0,1-.63-.68,2.86,2.86,0,0,1-.2-1.11v-.12h1.43a2,2,0,0,0,.1.74c.07.17.23.25.49.25a.46.46,0,0,0,.36-.15,1.09,1.09,0,0,0,.18-.5,8,8,0,0,0,0-.95v-.81a.88.88,0,0,1-.4.33,1.56,1.56,0,0,1-.6.13,1.48,1.48,0,0,1-1-.31,1.65,1.65,0,0,1-.54-.85,4.09,4.09,0,0,1-.17-1.2,4.27,4.27,0,0,1,.21-1.41,1.8,1.8,0,0,1,.68-.93,2.51,2.51,0,0,1,2.47,0,1.85,1.85,0,0,1,.69.88,3.83,3.83,0,0,1,.21,1.33v2.89a4.93,4.93,0,0,1-.18,1.39,1.76,1.76,0,0,1-.63,1A2.15,2.15,0,0,1,482.14,364.85Zm0-4.26a.52.52,0,0,0,.36-.12,1,1,0,0,0,.22-.24V359a3.28,3.28,0,0,0,0-.56,1.11,1.11,0,0,0-.18-.41.47.47,0,0,0-.37-.16.43.43,0,0,0-.37.17,1,1,0,0,0-.18.47,5.22,5.22,0,0,0,0,.74c0,.26,0,.5,0,.71a1.05,1.05,0,0,0,.15.49A.46.46,0,0,0,482.15,360.59Z" style="fill:#263238"></path><rect x="456.12" y="346.24" width="28.28" height="2.92" style="fill:#407BFF"></rect><rect x="513.84" y="57.01" width="42.26" height="30.88" style="fill:none;stroke:#b2b2b2;stroke-miterlimit:10"></rect><rect x="516.46" y="68.94" width="35.54" height="15.11" style="fill:#407BFF"></rect><path d="M523.45,82.33v-.91a2,2,0,0,1-1.51-.65A3,3,0,0,1,521.4,79l1.38-.23a4.29,4.29,0,0,0,.11.82,1,1,0,0,0,.25.48.58.58,0,0,0,.43.17A.43.43,0,0,0,524,80a.84.84,0,0,0,.12-.45,1.51,1.51,0,0,0-.23-.84,4,4,0,0,0-.64-.68l-.83-.71a6.32,6.32,0,0,1-.51-.54,1.93,1.93,0,0,1-.35-.63,2.29,2.29,0,0,1-.14-.83,1.91,1.91,0,0,1,.53-1.43,2.16,2.16,0,0,1,1.4-.58v-.87h.47v.87a1.86,1.86,0,0,1,.87.24,1.49,1.49,0,0,1,.51.52,2.8,2.8,0,0,1,.26.7,4.69,4.69,0,0,1,.09.73l-1.4.2a4.06,4.06,0,0,0,0-.64,1.07,1.07,0,0,0-.18-.43.43.43,0,0,0-.39-.15.52.52,0,0,0-.42.22.81.81,0,0,0-.14.46,1.09,1.09,0,0,0,.22.72,4,4,0,0,0,.49.53l.81.7a6,6,0,0,1,.59.64,2.74,2.74,0,0,1,.44.76,2.37,2.37,0,0,1,.17.95,2.14,2.14,0,0,1-.21,1,1.76,1.76,0,0,1-.61.69,2,2,0,0,1-.93.31v.92Z" style="fill:#263238"></path><path d="M528.43,81.43a2.56,2.56,0,0,1-1.17-.23,1.31,1.31,0,0,1-.64-.69,2.79,2.79,0,0,1-.2-1.11v-.11h1.43A2,2,0,0,0,528,80a.47.47,0,0,0,.48.25.43.43,0,0,0,.36-.15.94.94,0,0,0,.18-.5,7.75,7.75,0,0,0,0-.95v-.81a.94.94,0,0,1-.4.33,1.66,1.66,0,0,1-.61.13,1.57,1.57,0,0,1-1-.31,1.77,1.77,0,0,1-.54-.86A4,4,0,0,1,526.3,76a4.57,4.57,0,0,1,.2-1.41,1.86,1.86,0,0,1,.68-.93,2.17,2.17,0,0,1,1.25-.33,2.14,2.14,0,0,1,1.22.31,1.8,1.8,0,0,1,.69.89,3.83,3.83,0,0,1,.21,1.33v2.89a5,5,0,0,1-.17,1.39,1.83,1.83,0,0,1-.64,1A2.13,2.13,0,0,1,528.43,81.43Zm0-4.26a.57.57,0,0,0,.37-.12,1.2,1.2,0,0,0,.22-.24V75.55a3.24,3.24,0,0,0,0-.56.82.82,0,0,0-.18-.41.43.43,0,0,0-.37-.16.44.44,0,0,0-.37.17,1,1,0,0,0-.17.47,5,5,0,0,0,0,.73q0,.4,0,.72A1,1,0,0,0,528,77,.48.48,0,0,0,528.44,77.17Z" style="fill:#263238"></path><path d="M533.76,81.46a2.25,2.25,0,0,1-1.19-.29,1.84,1.84,0,0,1-.7-.81,2.78,2.78,0,0,1-.24-1.19V75.62a3.05,3.05,0,0,1,.23-1.22,1.79,1.79,0,0,1,.69-.82,2.24,2.24,0,0,1,1.21-.29,2.13,2.13,0,0,1,1.18.29,1.79,1.79,0,0,1,.69.82,2.89,2.89,0,0,1,.23,1.22v3.55a2.78,2.78,0,0,1-.24,1.19,1.84,1.84,0,0,1-.7.81A2.19,2.19,0,0,1,533.76,81.46Zm0-1.33a.45.45,0,0,0,.38-.17.84.84,0,0,0,.15-.39,2.29,2.29,0,0,0,0-.43V75.65a3.4,3.4,0,0,0,0-.45.88.88,0,0,0-.15-.41.43.43,0,0,0-.39-.17.44.44,0,0,0-.4.17,1,1,0,0,0-.16.41,3.4,3.4,0,0,0,0,.45v3.49a2.29,2.29,0,0,0,0,.43.85.85,0,0,0,.16.39A.48.48,0,0,0,533.76,80.13Z" style="fill:#263238"></path><path d="M536.87,81.32V79.88h1.41v1.44Z" style="fill:#263238"></path><path d="M541.2,81.43A2.56,2.56,0,0,1,540,81.2a1.31,1.31,0,0,1-.64-.69,2.8,2.8,0,0,1-.19-1.11v-.11h1.42a2,2,0,0,0,.11.74.56.56,0,0,0,.85.1,1,1,0,0,0,.17-.5,7.75,7.75,0,0,0,0-.95v-.81a.88.88,0,0,1-.4.33,1.66,1.66,0,0,1-.61.13,1.57,1.57,0,0,1-1-.31,1.77,1.77,0,0,1-.54-.86,4,4,0,0,1-.16-1.19,4.57,4.57,0,0,1,.2-1.41,1.82,1.82,0,0,1,.69-.93,2.12,2.12,0,0,1,1.24-.33,2.18,2.18,0,0,1,1.23.31,1.84,1.84,0,0,1,.68.89,3.82,3.82,0,0,1,.22,1.33v2.89a5,5,0,0,1-.18,1.39,1.83,1.83,0,0,1-.64,1A2.13,2.13,0,0,1,541.2,81.43Zm0-4.26a.55.55,0,0,0,.37-.12,1.2,1.2,0,0,0,.22-.24V75.55a3.24,3.24,0,0,0,0-.56.91.91,0,0,0-.17-.41.51.51,0,0,0-.75,0,1.08,1.08,0,0,0-.17.47,5.16,5.16,0,0,0,0,.73c0,.27,0,.51,0,.72a1,1,0,0,0,.16.49A.48.48,0,0,0,541.21,77.17Z" style="fill:#263238"></path><path d="M546.39,81.43a2.56,2.56,0,0,1-1.17-.23,1.31,1.31,0,0,1-.64-.69,2.79,2.79,0,0,1-.2-1.11v-.11h1.43a2,2,0,0,0,.11.74.46.46,0,0,0,.48.25.43.43,0,0,0,.36-.15.94.94,0,0,0,.18-.5,7.75,7.75,0,0,0,0-.95v-.81a.94.94,0,0,1-.4.33,1.66,1.66,0,0,1-.61.13,1.55,1.55,0,0,1-1-.31,1.77,1.77,0,0,1-.54-.86,4,4,0,0,1-.16-1.19,4.57,4.57,0,0,1,.2-1.41,1.86,1.86,0,0,1,.68-.93,2.17,2.17,0,0,1,1.25-.33,2.14,2.14,0,0,1,1.22.31,1.8,1.8,0,0,1,.69.89,3.83,3.83,0,0,1,.21,1.33v2.89a5,5,0,0,1-.17,1.39,1.83,1.83,0,0,1-.64,1A2.13,2.13,0,0,1,546.39,81.43Zm0-4.26a.57.57,0,0,0,.37-.12,1.6,1.6,0,0,0,.22-.24V75.55a3.24,3.24,0,0,0,0-.56.82.82,0,0,0-.18-.41.43.43,0,0,0-.37-.16.44.44,0,0,0-.37.17,1,1,0,0,0-.17.47,5,5,0,0,0-.05.73q0,.4,0,.72A1.05,1.05,0,0,0,546,77,.5.5,0,0,0,546.4,77.17Z" style="fill:#263238"></path><rect x="520.1" y="62.82" width="28.28" height="2.92" style="fill:#407BFF"></rect><rect x="332.91" y="143.29" width="42.26" height="30.88" style="fill:#fff;stroke:#b2b2b2;stroke-miterlimit:10"></rect><rect x="335.53" y="155.21" width="35.54" height="15.11" style="fill:#407BFF"></rect><path d="M342.51,168.61v-.91a1.92,1.92,0,0,1-1.5-.65,2.87,2.87,0,0,1-.54-1.81l1.38-.23a4.25,4.25,0,0,0,.1.81,1.07,1.07,0,0,0,.25.49.59.59,0,0,0,.43.16.45.45,0,0,0,.42-.19.94.94,0,0,0,.11-.45,1.48,1.48,0,0,0-.23-.84,3.52,3.52,0,0,0-.63-.68l-.83-.71a6.32,6.32,0,0,1-.51-.54,2.16,2.16,0,0,1-.36-.63,2.3,2.3,0,0,1-.13-.83,1.9,1.9,0,0,1,.52-1.43,2.17,2.17,0,0,1,1.41-.59v-.87h.47v.87a1.78,1.78,0,0,1,.86.24,1.46,1.46,0,0,1,.52.53,2.64,2.64,0,0,1,.25.7,4.73,4.73,0,0,1,.1.73l-1.4.2a5.59,5.59,0,0,0-.06-.64.89.89,0,0,0-.18-.44.44.44,0,0,0-.39-.14.48.48,0,0,0-.41.21.76.76,0,0,0-.14.46,1.17,1.17,0,0,0,.21.73,4.81,4.81,0,0,0,.49.53l.81.7a5.17,5.17,0,0,1,.6.64,3,3,0,0,1,.44.76,2.52,2.52,0,0,1,.17,1,2.06,2.06,0,0,1-.21.94,1.7,1.7,0,0,1-.61.69,2.06,2.06,0,0,1-.94.32v.92Z" style="fill:#263238"></path><path d="M347.44,167.74a2.2,2.2,0,0,1-1.28-.31,1.52,1.52,0,0,1-.6-.85,4.81,4.81,0,0,1-.16-1.28h1.46a4.67,4.67,0,0,0,.05.72.79.79,0,0,0,.2.44.52.52,0,0,0,.43.14.51.51,0,0,0,.41-.21,1.45,1.45,0,0,0,.15-.59q0-.39,0-.9a4.28,4.28,0,0,0-.05-.75,1,1,0,0,0-.19-.5.49.49,0,0,0-.43-.19.56.56,0,0,0-.44.19,1.15,1.15,0,0,0-.25.52h-1.29l.11-4.5h3.64V161h-2.4l-.09,1.76a.9.9,0,0,1,.4-.26,2.28,2.28,0,0,1,.6-.13,1.42,1.42,0,0,1,1,.24,1.74,1.74,0,0,1,.61.87,4.32,4.32,0,0,1,.19,1.39,8.34,8.34,0,0,1-.08,1.16,2.49,2.49,0,0,1-.3.92,1.51,1.51,0,0,1-.65.6A2.42,2.42,0,0,1,347.44,167.74Z" style="fill:#263238"></path><path d="M352.55,167.74a2.17,2.17,0,0,1-1.19-.3,1.76,1.76,0,0,1-.7-.8,2.81,2.81,0,0,1-.24-1.19v-3.56a3.09,3.09,0,0,1,.23-1.22,1.76,1.76,0,0,1,.69-.81,2.24,2.24,0,0,1,1.21-.3,2.11,2.11,0,0,1,1.18.3,1.76,1.76,0,0,1,.69.81,2.92,2.92,0,0,1,.23,1.22v3.56a2.81,2.81,0,0,1-.24,1.19,1.76,1.76,0,0,1-.7.8A2.11,2.11,0,0,1,352.55,167.74Zm0-1.34a.44.44,0,0,0,.38-.16.84.84,0,0,0,.15-.4,2.12,2.12,0,0,0,0-.42v-3.5a3.64,3.64,0,0,0,0-.45.88.88,0,0,0-.15-.4.43.43,0,0,0-.39-.17.44.44,0,0,0-.4.17,1,1,0,0,0-.16.4,3.64,3.64,0,0,0,0,.45v3.5a2.12,2.12,0,0,0,0,.42.85.85,0,0,0,.16.4A.47.47,0,0,0,352.55,166.4Z" style="fill:#263238"></path><path d="M355.66,167.6v-1.44h1.41v1.44Z" style="fill:#263238"></path><path d="M360,167.71a2.59,2.59,0,0,1-1.17-.23,1.39,1.39,0,0,1-.64-.69,2.8,2.8,0,0,1-.19-1.11v-.12h1.43a2,2,0,0,0,.1.75.57.57,0,0,0,.85.09,1,1,0,0,0,.17-.49,7.75,7.75,0,0,0,0-.95v-.82a.84.84,0,0,1-.4.34,1.48,1.48,0,0,1-.61.12,1.51,1.51,0,0,1-1-.3,1.82,1.82,0,0,1-.54-.86,4.08,4.08,0,0,1-.16-1.19,4.19,4.19,0,0,1,.21-1.41,1.75,1.75,0,0,1,.68-.93,2.12,2.12,0,0,1,1.24-.34,2.18,2.18,0,0,1,1.23.32,1.8,1.8,0,0,1,.68.89,3.6,3.6,0,0,1,.22,1.33V165a5,5,0,0,1-.18,1.39,1.81,1.81,0,0,1-.63,1A2.12,2.12,0,0,1,360,167.71Zm0-4.26a.55.55,0,0,0,.37-.12,1,1,0,0,0,.22-.24v-1.27a3.12,3.12,0,0,0,0-.55.91.91,0,0,0-.17-.41.45.45,0,0,0-.38-.16.43.43,0,0,0-.37.17,1,1,0,0,0-.17.47,5.07,5.07,0,0,0,0,.73c0,.27,0,.5,0,.71a1,1,0,0,0,.15.49A.46.46,0,0,0,360,163.45Z" style="fill:#263238"></path><path d="M365.18,167.71a2.56,2.56,0,0,1-1.17-.23,1.35,1.35,0,0,1-.64-.69,2.79,2.79,0,0,1-.2-1.11v-.12h1.43a2,2,0,0,0,.11.75c.06.16.23.24.48.24a.43.43,0,0,0,.36-.15.87.87,0,0,0,.18-.49,7.75,7.75,0,0,0,0-.95v-.82a.89.89,0,0,1-.4.34,1.48,1.48,0,0,1-.61.12,1.51,1.51,0,0,1-1-.3,1.82,1.82,0,0,1-.54-.86,4.08,4.08,0,0,1-.16-1.19,4.48,4.48,0,0,1,.2-1.41,1.86,1.86,0,0,1,.68-.93,2.17,2.17,0,0,1,1.25-.34,2.14,2.14,0,0,1,1.22.32,1.76,1.76,0,0,1,.69.89,3.83,3.83,0,0,1,.21,1.33V165a5,5,0,0,1-.17,1.39,1.77,1.77,0,0,1-.64,1A2.06,2.06,0,0,1,365.18,167.71Zm0-4.26a.57.57,0,0,0,.37-.12,1.2,1.2,0,0,0,.22-.24v-1.27a3.12,3.12,0,0,0,0-.55.82.82,0,0,0-.18-.41.43.43,0,0,0-.37-.16.41.41,0,0,0-.37.17.93.93,0,0,0-.17.47,4.91,4.91,0,0,0-.05.73c0,.27,0,.5,0,.71a1,1,0,0,0,.15.49A.48.48,0,0,0,365.19,163.45Z" style="fill:#263238"></path><rect x="339.16" y="149.09" width="28.28" height="2.92" style="fill:#407BFF"></rect><rect x="48.85" y="268.14" width="42.26" height="30.88" style="fill:#fff;stroke:#b2b2b2;stroke-miterlimit:10"></rect><rect x="51.47" y="280.07" width="35.54" height="15.11" style="fill:#407BFF"></rect><path d="M56.46,293.46v-.91A1.94,1.94,0,0,1,55,291.9a3,3,0,0,1-.54-1.81l1.38-.23a4.29,4.29,0,0,0,.11.82.94.94,0,0,0,.24.48.62.62,0,0,0,.44.17.43.43,0,0,0,.41-.2.84.84,0,0,0,.11-.45,1.43,1.43,0,0,0-.23-.84,3.52,3.52,0,0,0-.63-.68l-.83-.71a6.32,6.32,0,0,1-.51-.54,2.16,2.16,0,0,1-.36-.63,2.54,2.54,0,0,1-.13-.83,1.91,1.91,0,0,1,.53-1.43,2.12,2.12,0,0,1,1.4-.58v-.88h.47v.88a1.86,1.86,0,0,1,.87.24,1.49,1.49,0,0,1,.51.52,2.44,2.44,0,0,1,.25.7,3.76,3.76,0,0,1,.1.73l-1.4.2a3.1,3.1,0,0,0-.06-.64,1,1,0,0,0-.17-.43.44.44,0,0,0-.39-.15.49.49,0,0,0-.42.22.81.81,0,0,0-.14.46,1.14,1.14,0,0,0,.21.72,6,6,0,0,0,.49.53l.82.7a6,6,0,0,1,.59.64,2.74,2.74,0,0,1,.44.76,2.55,2.55,0,0,1,.17.95,2.14,2.14,0,0,1-.21,1,1.76,1.76,0,0,1-.61.69,2,2,0,0,1-.93.31v.92Z" style="fill:#263238"></path><path d="M60.29,292.45v-6.36a1,1,0,0,1-.24.1l-.32.12-.34.12-.24.09V285.4l.32-.15.42-.22.43-.25a1.76,1.76,0,0,0,.31-.26H61.8v7.93Z" style="fill:#263238"></path><path d="M65.39,292.59a2.24,2.24,0,0,1-1.18-.29,1.92,1.92,0,0,1-.71-.81,3,3,0,0,1-.23-1.19v-3.55a3.06,3.06,0,0,1,.22-1.22,1.81,1.81,0,0,1,.7-.82,2.18,2.18,0,0,1,1.2-.29,2.14,2.14,0,0,1,1.19.29,1.79,1.79,0,0,1,.69.82,3.05,3.05,0,0,1,.23,1.22v3.55a2.81,2.81,0,0,1-.24,1.19,1.84,1.84,0,0,1-.7.81A2.23,2.23,0,0,1,65.39,292.59Zm0-1.33a.42.42,0,0,0,.38-.17.85.85,0,0,0,.16-.4,2.12,2.12,0,0,0,0-.42v-3.5a3.64,3.64,0,0,0,0-.45,1,1,0,0,0-.16-.4.41.41,0,0,0-.39-.17.43.43,0,0,0-.39.17.79.79,0,0,0-.16.4,3.64,3.64,0,0,0,0,.45v3.5a2.12,2.12,0,0,0,0,.42.85.85,0,0,0,.16.4A.46.46,0,0,0,65.39,291.26Z" style="fill:#263238"></path><path d="M70.71,292.59a2.28,2.28,0,0,1-1.19-.29,1.9,1.9,0,0,1-.7-.81,2.81,2.81,0,0,1-.24-1.19v-3.55a3.05,3.05,0,0,1,.23-1.22,1.79,1.79,0,0,1,.69-.82,2.24,2.24,0,0,1,1.21-.29,2.17,2.17,0,0,1,1.19.29,1.79,1.79,0,0,1,.69.82,3.06,3.06,0,0,1,.22,1.22v3.55a3,3,0,0,1-.23,1.19,1.86,1.86,0,0,1-.71.81A2.19,2.19,0,0,1,70.71,292.59Zm0-1.33a.45.45,0,0,0,.38-.17,1,1,0,0,0,.16-.4,3.19,3.19,0,0,0,0-.42v-3.5a3.64,3.64,0,0,0,0-.45.88.88,0,0,0-.15-.4.43.43,0,0,0-.39-.17.44.44,0,0,0-.4.17,1,1,0,0,0-.16.4,3.64,3.64,0,0,0,0,.45v3.5a2.12,2.12,0,0,0,0,.42.85.85,0,0,0,.17.4A.45.45,0,0,0,70.71,291.26Z" style="fill:#263238"></path><path d="M73.82,292.45V291h1.41v1.44Z" style="fill:#263238"></path><path d="M78.16,292.56a2.6,2.6,0,0,1-1.18-.23,1.33,1.33,0,0,1-.63-.69,2.62,2.62,0,0,1-.2-1.11v-.11h1.43a2,2,0,0,0,.1.74c.07.16.23.24.49.24a.45.45,0,0,0,.36-.14,1,1,0,0,0,.17-.5,6.15,6.15,0,0,0,0-.95V289a.88.88,0,0,1-.4.33,1.61,1.61,0,0,1-.61.13,1.52,1.52,0,0,1-1-.31,1.71,1.71,0,0,1-.55-.86A4.39,4.39,0,0,1,76,287.1a4.27,4.27,0,0,1,.21-1.41,1.75,1.75,0,0,1,.68-.93,2.54,2.54,0,0,1,2.47,0,1.84,1.84,0,0,1,.68.89,3.6,3.6,0,0,1,.22,1.33v2.89a5,5,0,0,1-.18,1.39,1.82,1.82,0,0,1-.63,1A2.17,2.17,0,0,1,78.16,292.56Zm0-4.26a.54.54,0,0,0,.36-.12,1,1,0,0,0,.22-.24v-1.26a2.43,2.43,0,0,0,0-.56.91.91,0,0,0-.17-.41.44.44,0,0,0-.37-.16.46.46,0,0,0-.38.17,1.08,1.08,0,0,0-.17.47,5.16,5.16,0,0,0,0,.73q0,.4,0,.72a1.09,1.09,0,0,0,.15.49A.49.49,0,0,0,78.17,288.3Z" style="fill:#263238"></path><path d="M83.34,292.56a2.56,2.56,0,0,1-1.17-.23,1.31,1.31,0,0,1-.64-.69,2.8,2.8,0,0,1-.19-1.11v-.11h1.43a2,2,0,0,0,.1.74.58.58,0,0,0,.85.1,1,1,0,0,0,.17-.5,7.75,7.75,0,0,0,0-.95V289a.88.88,0,0,1-.4.33,1.66,1.66,0,0,1-.61.13,1.57,1.57,0,0,1-1-.31,1.77,1.77,0,0,1-.54-.86,4,4,0,0,1-.16-1.19,4.57,4.57,0,0,1,.2-1.41,1.82,1.82,0,0,1,.69-.93,2.12,2.12,0,0,1,1.24-.33,2.18,2.18,0,0,1,1.23.31,1.84,1.84,0,0,1,.68.89,3.6,3.6,0,0,1,.22,1.33v2.89a5,5,0,0,1-.18,1.39,1.83,1.83,0,0,1-.64,1A2.13,2.13,0,0,1,83.34,292.56Zm0-4.26a.55.55,0,0,0,.37-.12,1.2,1.2,0,0,0,.22-.24v-1.26a3.15,3.15,0,0,0,0-.56.91.91,0,0,0-.17-.41.51.51,0,0,0-.75,0,1.08,1.08,0,0,0-.17.47,5.16,5.16,0,0,0,0,.73c0,.27,0,.51,0,.72a1,1,0,0,0,.16.49A.48.48,0,0,0,83.35,288.3Z" style="fill:#263238"></path><rect x="55.1" y="273.95" width="28.28" height="2.92" style="fill:#407BFF"></rect></g><g id="freepik--Floor--inject-156"><line x1="9.56" y1="422.35" x2="731.95" y2="422.35" style="fill:none;stroke:#263238;stroke-linecap:round;stroke-linejoin:round"></line></g></svg>